<?xml version="1.0" encoding="UTF-8"?>
<svg id="Layer_2" data-name="Layer 2" xmlns="http://www.w3.org/2000/svg" viewBox="0 0 497.65 497.65">
  <defs>
    <style>
      .cls-1 {
        fill: #000;
      }

      .cls-1, .cls-2 {
        stroke-width: 0px;
      }

      .cls-2 {
        fill: #fff;
      }
    </style>
  </defs>
  <g id="Layer_1-2" data-name="Layer 1">
    <path class="cls-1" d="M497.65,249.28c-.02,137.28-111.63,248.44-249.36,248.37C110.82,497.57-.1,385.95,0,247.81.1,110.78,112.01-.17,249.95,0c136.76.17,247.72,111.84,247.7,249.28ZM370.49,239.31c4.41-5.56,7.45-12.34,14.02-16.42-5.02,7.35-9.84,14.42-14.67,21.49.3.2.61.41.91.61,1.51-.99,3.02-1.97,4.53-2.96-5.68,8.03-11.75,15.41-16.14,23.89.34.24.68.49,1.02.73,3.77-4.8,7.55-9.61,11.32-14.41.31.23.63.46.94.69-.54.95-1.02,1.94-1.63,2.84-3.5,5.19-7.16,10.28-10.46,15.6-1.06,1.7-1.18,3.97-1.73,5.99.4.12.79.24,1.19.35,2.05-3.26,4.09-6.52,6.16-9.76q4.72-7.4,7.5-7.59c-5.9,8.87-12.08,17.53-14.74,28.01,5.15-6.05,7.94-13.79,14.25-18.88-5.13,10.51-13.52,19.3-16.14,32.15,5.05-7.34,9.54-13.86,14.03-20.38.3.22.61.43.91.65-2.74,4.68-5.31,9.48-8.26,14.01-6.9,10.58-6.98,10.53-6.56,14.79,6.11-9.08,12.08-17.95,18.05-26.83l1.17.78c-7.44,11.61-15.84,22.68-21.36,35.36.47.3.93.6,1.4.9,5.48-7.24,10.95-14.48,16.43-21.72.75.98.83,1.56.59,1.89-4.93,6.78-9.79,13.61-14.89,20.25-3.02,3.93-4.23,8.05-2.83,13.21,4.66-7.21,9.15-14.17,13.65-21.13.31.19.62.37.93.56-.04.34.02.74-.14,1.01-4.52,7.66-9.19,15.24-13.53,23.01-1.18,2.11-1.37,4.77-2.02,7.18.45.15.89.29,1.34.44,3.99-7.02,7.99-14.03,11.98-21.05-2.61,10.48-9.66,18.88-12.07,29.31,5.27-6.36,7.14-14.77,13.14-20.59-4.03,9.03-8.47,17.82-12.72,26.71-.7,1.46-.58,3.31-.83,4.98.29.07.59.14.88.21,2.97-6.13,5.94-12.27,8.91-18.4.32.14.64.27.96.41-.15.66-.23,1.35-.48,1.97-2.52,6.33-5.11,12.63-7.54,19-.3.79.27,1.91.55,3.6,2.84-5.58,5.18-10.17,7.52-14.77.38.2.75.39,1.13.59-.27.68-.52,1.36-.8,2.04-3.24,7.69-6.61,15.33-9.63,23.11-.66,1.71-.1,3.9-.1,5.87.23,0,.47,0,.7,0,2.15-4.65,4.3-9.3,6.45-13.94.37.18.74.37,1.1.55-1.54,4.21-3.39,8.33-4.55,12.64-2.23,8.26-2.07,8.64.04,13.37,1.13-4.22,2.01-8.06,3.2-11.8,1.17-3.67,2.67-7.24,4.02-10.85.42.15.84.3,1.25.46-.52,1.55-1.17,3.07-1.55,4.65-1.51,6.35-2.65,12.8-4.47,19.06-1.59,5.5,1.09,10.2,6.88,10.83,3.84-8.88,1.81-19.34,7.38-28.83-1.53,10.32-2.91,19.58-4.28,28.85,1.29-.64,2.54-1.72,2.82-3.02.75-3.39.87-6.93,1.63-10.32.92-4.09,2.24-8.09,3.39-12.13.45.12.9.24,1.35.36-2.12,7.05-3.49,14.17-2.37,21.66,1.63-2.66,2.9-5.43,3.44-8.33.9-4.8,1.25-9.69,2.01-14.52.2-1.27,1.04-2.43,1.59-3.64.13.1.27.2.4.31-.4,6.18-.81,12.36-1.21,18.55.27.08.54.16.81.25,1.23-2.27,2.46-4.53,3.9-7.19-1.25.51-1.89.77-2.7,1.11.34-2.38.59-4.42.92-6.44,1.32-8.1,2.54-16.22,4.06-24.28.65-3.45,2.74-6.76,2.81-10.16.24-10.43.09-20.88-.47-31.29-.24-4.44,2.04-5.51,5.21-6.44,1.39,4.18,2.71,8.14,4.03,12.1.4-.09.81-.19,1.21-.28,2.61-5.4,5.22-10.79,7.83-16.19.36.16.71.33,1.07.49-2,4.66-3.71,9.47-6.09,13.93-2.01,3.76-1.09,6.21,2.05,8.44.72.51,1.39,1.09,2.45,1.94,3.09-7.43,6.08-14.65,9.08-21.87l1.03.44c-2.5,6.57-4.79,13.23-7.57,19.68-1.47,3.41.18,4.75,2.73,5.84,3,1.28,3.07-1.55,3.77-3.07,2.26-4.92,4.32-9.93,6.46-14.91.33.13.66.27.98.4-2.49,6.24-4.98,12.48-7.47,18.72.54.24,1.07.47,1.61.71,2.59-5.84,5.19-11.68,7.78-17.52.3.14.59.28.89.42-1.8,4.77-3.68,9.51-5.33,14.33-.37,1.08.06,2.42.12,3.65,1.02-.87,2.41-1.54,2.97-2.64,1.04-2.03,1.44-4.38,2.37-6.48,1.16-2.62,2.59-5.12,3.9-7.67l.57.36c-2.1,5.55-4.2,11.11-6.3,16.66.37.15.73.3,1.1.45,2.04-4.77,4.09-9.54,6.13-14.31.3.13.6.25.9.38-1.58,4.53-3.16,9.07-4.78,13.72,5.52.64,6.26.14,7.53-4.26,1.05-3.63,2.23-7.22,3.36-10.82.34.1.68.2,1.02.3-1.18,4.47-2.35,8.95-3.66,13.91,4.44-1.16,3.88-4.69,4.88-7.23,1.02-2.61,2.01-5.24,3.01-7.86l.92.35c-1.2,4.02-2.4,8.05-3.61,12.07.37.16.74.31,1.11.47,3.84-4.05,3.08-10.51,7.33-15.54-1.23,4.31-2.18,7.66-3.13,11,.28.11.55.21.83.32,1.91-4.77,3.82-9.54,5.73-14.31.39.15.77.29,1.16.44-1.46,4-4.48,7.65-3.57,12.19.41.15.82.3,1.23.45,1.75-4.93,3.5-9.86,5.25-14.78.29.1.57.2.86.3-1.03,3.54-2.05,7.09-3.08,10.63.44.15.88.29,1.32.44,1.02-2.87,2.03-5.74,3.05-8.62.22.06.45.13.67.19v4c3.47-5.33,3.89-10.97,7.84-15.66,3.53-4.2,6.74-10.3,7.03-16.79.26-5.86,1.79-11.74-.45-17.47-5.84-.57-8.41,3.22-10.51,7.5-1.25,2.54-2.18,5.25-3.43,7.79-.53,1.08-1.53,1.94-2.32,2.9.02-.47.04-.93.06-1.4-12.17-7.12-24.34-14.24-37.45-21.91.37-1.43.71-3.91,1.67-6.12,1.89-4.34,4.14-8.52,6.2-12.79,1.03-2.12,1.97-4.28,2.96-6.42.38.16.77.33,1.15.49-2.65,6.71-5.31,13.41-7.96,20.12,8.2-7.56,8.65-18.9,14.6-27.6-1.4,4.91-2.8,9.82-4.2,14.73.16.06.33.12.49.19,2.81-6.79,5.62-13.58,8.43-20.36.26.09.52.18.79.27.06,1.11.12,2.21.2,3.68.67-.63,1.08-.83,1.2-1.15,4.44-11.36,10.96-21.99,12.2-34.47.32-3.2.5-6.41.78-9.61.75-8.5-1.03-16.27-7.46-22.23-6.65-6.16-14.18-10.19-23.67-10.96-14.94-1.22-29.46-.69-42.91,6.57-2.52,1.36-7.16,1.56-6.47,6.49-5.51.82-9.65,7.37-6.61,11.22,2.23-2.54,4.48-4.97,6.59-7.52,4.04-4.89,5.13-5.66,7.34-5.22-6.98,9.7-17.15,17.42-20.26,30,3.68-3.62,6.65-7.76,9.76-11.79,5.82-7.55,8.16-9.62,11.64-10.29-1.21,1.44-2.27,2.61-3.25,3.86-4.69,6-9.6,11.85-13.94,18.1-2.83,4.07-6.97,7.67-6.89,13.87,3.51-4.78,6.64-9.19,9.93-13.48,3.24-4.23,6.48-8.5,11.34-11.12-8.86,11.68-18.67,22.66-23.55,36.8,3.63-4.19,6.58-8.85,9.91-13.22,8.41-11.06,8.48-11.01,11.62-11.65-9.74,10.99-17.13,23.25-23.63,36.07,8.44-9.78,13.84-21.93,24.31-31.23-6.71,10.36-12.89,19.89-19.06,29.42-2,3.8-7.26,5.48-6.37,11.15,2.24-3.61,4.49-7.21,6.73-10.82ZM309.63,225.36c-1.93,8.72-3.87,17.43-6.05,27.3,4.89-5.7,9.28-10.19,14.92-13.18-2.69,3.46-5.96,6.26-8.96,9.34-2.53,2.59-5.74,5.14-6.87,8.34-2.26,6.38-3.29,13.19-4.83,19.82v-.07c-1.04,3.64-2.09,7.27-3.15,10.91,1.58-2.32,5.69-3.18,4.18-7.14-.13-.35.56-1.13,1.01-1.56,2.66-2.61,5.3-5.24,8.09-7.71.94-.83,2.3-1.17,3.46-1.74.18.26.36.53.53.79-3.41,3.17-6.81,6.34-10.22,9.51.16.16.31.32.47.48,2.72-1.98,5.44-3.95,8.16-5.93.27.38.53.77.8,1.15-5.65,5.23-11.3,10.46-17.93,16.59-.94,3.52-2.31,8.61-3.67,13.69.35.14.69.29,1.04.43,4.23-3.41,8.46-6.82,12.69-10.23.42.51.85,1.02,1.27,1.53-3.03,2.61-6.03,5.25-9.1,7.81-3.07,2.55-6.21,5.02-9.32,7.52.29.32.57.64.86.96,2.24-1.75,4.42-3.57,6.72-5.22,1.88-1.35,3.86-2.59,5.91-3.65.49-.25,1.46.42,2.21.66-.36.7-.55,1.63-1.12,2.05-6.69,4.92-13.45,9.74-20.16,14.63-1.41,1.03-2.5,3.73-4.55,1.1-2.66-3.42-4.71-7.13-3.67-11.78,2.37-10.57,4.41-21.22,7.11-31.7,4.18-16.24,8.76-32.37,13.22-48.54,3.25-11.81,5.85-23.86,10.07-35.31,4.74-12.88,9.09-25.81,11.91-39.21,1.64-7.78,3.93-15.7,1.88-23.7-1.84-7.17-3.5-8.42-10.18-6.74-3.24.81-6.37,2.17-9.64,2.68-7.15,1.11-18.59,14.78-17.91,22.07.11,1.15,1.39,2.57,2.5,3.16,2.58,1.36,4.09.21,5.33-2.44,2.11-4.5,4.72-8.76,7.13-13.11.49.27.98.54,1.47.81-1.03,1.94-2.1,3.86-3.08,5.81-.96,1.9-1.84,3.85-2.75,5.78q8.22-10.25,13.32-10.02c-1.55,2.06-3.07,3.95-4.43,5.95-1.24,1.83-3.54,3.38-2.26,6.31,1.98-1.87,3.76-3.55,5.53-5.22.3.27.61.55.91.82-3.64,4.36-7.29,8.71-10.93,13.07.56.51,1.12,1.02,1.68,1.53,1.96-2.58,3.93-5.16,5.89-7.73.34.32.67.63,1.01.95-4.42,5.37-8.84,10.73-13.27,16.1.31.24.62.49.94.73,1.74-1.89,3.42-3.84,5.25-5.64,1.65-1.64,3.47-3.11,5.21-4.65.2.25.41.49.61.74-5.5,6.48-10.99,12.96-16.49,19.44.26.22.53.44.79.66,4.62-4.93,9.25-9.86,13.87-14.8.39.35.79.71,1.18,1.06-6.16,7.8-14.09,14.28-18.97,23.03.29.23.58.45.88.68,4.6-5.44,9.2-10.87,13.8-16.31.48.41.97.82,1.45,1.24-3.69,4.42-7.39,8.83-11.08,13.25.12.11.25.22.37.33l5.2-4.14c.25.28.5.57.75.85-.89,1.04-1.8,2.06-2.66,3.13-6.34,7.88-12.89,15.61-18.86,23.76-1.85,2.53-2.14,6.2-3.26,9.69,3.87-4.78,7.5-9.3,11.16-13.8,2.5-3.08,3.15-3.42,5.8-2.96-9.39,10.26-18.51,20.63-24.83,33.09,5.95-6.25,10-14.15,16.66-19.74.31.25.61.5.92.75-4.69,6.27-9.38,12.54-14.07,18.82.2.15.41.3.61.44,3.13-3.46,6.26-6.92,9.39-10.38l1.11,1c-.54.78-1.04,1.59-1.63,2.33-3.2,4.05-6.82,7.84-9.55,12.18-4.58,7.31-11.56,13.1-13.86,21.83-1.18,4.49-2.23,9.01-3.33,13.51,4-4.58,7.14-9.43,10.47-14.15.98-1.39,2.48-2.4,3.75-3.59l.87.93c-6.22,9.7-14.12,18.45-17.38,29.85,3.69-4.78,6.9-9.86,10.24-14.85.75-1.12,1.98-1.92,2.99-2.87.33.33.65.66.98.99-2.13,3.3-4.27,6.59-6.38,9.9-2.15,3.38-4.46,6.68-6.32,10.21-1.75,3.32-3.01,6.9-4.49,10.37.25.1.5.21.75.31,4.4-7.25,8.8-14.49,13.21-21.74.53.24,1.06.49,1.59.73-.18.81-.17,1.72-.56,2.41-4.25,7.36-8.74,14.59-12.79,22.07-1.62,2.99-2.29,6.48-3.39,9.75.34.12.68.25,1.02.37,1.28-2.6,2.53-5.21,3.84-7.79,1.35-2.64,2.8-5.23,4.13-7.89,1.28-2.57,2.55-5.1,6.38-6.31-2.34,4.14-4.36,7.51-6.17,11-1.78,3.43-3.52,6.9-4.97,10.48-1.43,3.51-2.49,7.18-3.7,10.78.3.09.61.18.91.27,1.76-3.69,3.54-7.37,5.27-11.08,3.94-8.47,4.17-8.79,7.35-9.37-.09.54-.07,1.07-.27,1.48-3.59,7.27-7.2,14.53-10.83,21.77-1.58,3.14-1.79,6.17.43,9.38,2.58-6.87,5-13.53,7.6-20.1.48-1.22,1.7-2.15,2.58-3.21.34.27.69.54,1.03.81-3.26,9.25-6.51,18.5-9.77,27.75,4.75-5.93,4.17-14.42,10.49-19.43.3,1.19.01,2.1-.3,3.01-2.38,7.05-4.9,14.07-7.06,21.19-.51,1.67.2,3.71.35,5.58h1.17c2.84-7.21,3.67-15.23,8.78-21.61.41,1.48.3,2.85-.07,4.14-1.89,6.67-3.91,13.31-5.7,20.01-.27,1,.43,2.25.78,3.87,2.11-6.57,3.87-12.32,5.85-17.98.33-.94,1.65-1.54,2.52-2.29l1.05.87c-.67,1.61-1.52,3.17-1.96,4.85-1.34,5.09-2.66,10.19-3.68,15.34-.47,2.36.65,4.19,3.34,4.63,1.4-6.13.83-12.79,5.99-18.53.39,1.6.74,2.22.64,2.76-.87,4.66-2.14,9.28-2.63,13.98-.31,2.96-.38,6.52,3.72,7.59.37-3.88.59-7.59,1.16-11.24.14-.91,1.41-1.64,2.16-2.45.35.94.97,1.87,1,2.82.09,3.59-.08,7.18-.04,10.76.03,3.34,1.74,4.6,5.15,3.79.5-4.54.3-9.29,4.66-13.54.28,1.86.67,2.89.54,3.85-.29,2.14-1,4.23-1.24,6.38-.71,6.27,2.02,8.6,8.37,7.3-2.37-5.1.12-9.47,1.71-14.89,2.68,3.72.97,6.76.91,9.66-.1,4.7,2.2,8.75,7.69,5.96.29-3.26-.87-6.95,3.01-9.29.51,1.64.14,3.36.61,4.8.56,1.74,1.51,4.13,2.89,4.63,1.8.66,4.7,1.07,5.2-2.68.13-.98,2.25-1.7,3.46-2.53.3.34.61.68.91,1.02,4.14-5.46,8.29-10.92,12.43-16.39.35.19.69.39,1.04.58-.71,2.18-1.42,4.36-2.12,6.54,1.62-.96,2.53-2.2,3.1-3.57.99-2.38,1.74-4.86,2.64-7.28.75-2,1.74-3.08,3.89-.51.68-5.23.93-10.33,1.16-15.42.18-4,.17-4,4.51-3.8,0-2.05-.05-4.08.02-6.1.04-1.14-.11-2.99.47-3.29,3.68-1.91,2.43-5.31,2.7-8.17.24-2.48.05-5,.05-8.33,1.56,1.26,2.31,1.88,3.37,2.73.83-7.72-.3-14.98,1.17-22.33,1.5-7.51,1.07-15.41,1.33-23.15.07-2.13-.81-4.34-.55-6.42,1.71-13.43,3.67-26.83,5.45-40.25,1.6-12.02,2.77-24.11,4.7-36.07,2.24-13.95,5.21-27.79,7.65-41.71,1.81-10.37,3.34-20.8,4.86-31.22.29-1.95-.69-4.32.09-5.92,2.23-4.59,1.75-10.13,6.23-14.05,6.13-5.37,11.71-11.19,20.13-12.99,3.42-.73,6.7-2.11,10.2-3.24-10.48-6.34-38.15,8.36-44.1,17.63,1.82-1.11,3.43-2.09,5.04-3.07.15.22.3.44.44.66-5.74,4.9-11.49,9.8-17.23,14.7.22.26.44.51.66.77.98-.5,1.95-1,2.93-1.5.24.28.48.57.72.85-3.68,2.83-7.36,5.66-11.04,8.49.49.52.99,1.05,1.48,1.57.93-.28,1.86-.57,3.92-1.2-3.91,4.13-6.99,7.38-10.07,10.63.25.25.5.49.75.74,1.72-1.5,3.43-3.01,5.15-4.51.23.23.45.46.68.68-4.46,5.48-8.92,10.97-13.39,16.45.26.2.52.39.77.59,2.56-2.79,5.13-5.58,7.69-8.36.3.29.59.57.89.86-2.75,3.31-5.5,6.62-8.25,9.93.18.14.35.29.53.43,2.16-1.98,4.33-3.95,6.49-5.93.23.24.45.49.68.73-5.25,5.95-10.49,11.9-15.74,17.84.32.29.63.58.95.86l11.61-11.87c.24.23.48.46.72.69-3.23,3.55-6.51,7.05-9.68,10.65-6.53,7.41-7.35,8.8-7.61,12.39,4.41-4.98,8.74-9.86,13.07-14.75.35.31.7.62,1.04.93-3.12,3.67-6.25,7.34-9.37,11-2.91,3.41-5.82,6.82-8.73,10.24.29.22.57.45.86.67,3.86-4.3,7.71-8.61,11.57-12.91.32.28.64.56.95.84-4.54,5.51-9.08,11.03-13.62,16.54.19.16.37.32.56.48,3.73-3.44,7.46-6.89,11.19-10.33.29.32.57.64.86.96-5.81,6.41-13.31,11.55-15.96,20.33,4.65-4.7,8.52-10.15,14.68-13.14-4.72,5.31-9.45,10.62-14.17,15.93,2.38-1.2,4.14-2.91,5.96-4.55,1.64-1.49,3.34-2.91,5.02-4.36l.74.89c-6.25,7.43-15.43,12.82-17.32,24.46,5.51-6.57,10.48-12.34,17.23-16.15-1.5,2.3-3.64,3.95-5.34,5.98-4,4.8-7.79,9.79-11.66,14.69l-1.47,2.1ZM131.08,308.78c.32-4.9.64-9.8.95-14.71.53.03,1.06.05,1.58.08.62,7.84-.91,15.9,1.52,23.55.85-3.6-.37-7.54,2.57-10.55.45,5.7.25,11.33.55,16.94.11,1.96,1.43,3.86,2.2,5.79l1.64-.39v-10.39c.47,0,.93-.02,1.4-.03.37,3.49.74,6.97.98,9.32,1.56,1.69,3,2.53,3.19,3.58,1.72,9.78,3.25,19.6,4.77,29.42.73,4.7,1.93,7.08,5.03,9.24-2-9.69-3.99-19.28-5.98-28.88.51-.12,1.03-.23,1.54-.35,1.23,4.11,2.46,8.22,3.69,12.32.16-.06.32-.12.47-.18v-4.96c.36-.08.72-.17,1.07-.25.42,1.14.89,2.27,1.26,3.43,3.24,10.06,6.39,20.15,9.8,30.15.46,1.33,2.24,2.21,3.42,3.3.36-.32.71-.64,1.07-.96-3.6-9.93-8.01-19.63-9.6-30.21.91.37,1.42.91,1.64,1.54,2.24,6.58,4.31,13.21,6.67,19.74,1.67,4.63,2.89,9.66,8.68,12.54-4.32-10.18-9.19-19.53-9.79-30.17,1.15.86,1.55,1.97,1.93,3.08,3.13,9.15,5.65,18.58,11.97,26.26.62.75,1.74,1.08,2.63,1.6-.08-1.01.1-2.14-.29-3.01-2.65-5.87-5.47-11.65-8.1-17.53-.45-1.02-.21-2.34-.29-3.53.33-.05.66-.1.99-.15,3.24,7.67,5.45,15.93,12.63,21.5-2.84-7.52-6.22-14.86-6.87-22.99,3.72,6.63,4.32,14.78,9.98,20.53,2.51-2.51,2.45-4.5.76-7.12-1.72-2.67-2.76-5.8-3.84-8.83-.4-1.11-.06-2.48-.06-3.73.42-.1.84-.2,1.26-.3,2.2,4.42,4.39,8.83,6.71,13.48,3.35-3.27,3.06-3.15,1.71-6.34-1.86-4.37-3.26-8.93-4.75-13.45-.18-.54.38-1.31.59-1.98l1.13-.31c1.77,4.51,3.54,9.03,5.56,14.19,5.23-8.21-.48-15.21-.76-22.33.49-.11.98-.22,1.47-.33,1.17,2.79,2.35,5.57,3.5,8.3,4.89-7.13-1.23-14.66.35-21.82.41,0,.82-.01,1.23-.02.44,1.16.88,2.32,1.31,3.48.31-.08.62-.17.94-.25-1.77-6.96-3.31-14-5.41-20.87-1.3-4.27-3.19-8.42-5.27-12.39-3.87-7.37-7.84-14.71-12.26-21.75-1.91-3.04-5.02-2.89-7.6-.17-1.01,1.06-.83,3.19-1.72,4.45-.81,1.14-2.89,1.48-3.46,2.64-1.42,2.92-2.17,6.16-3.46,9.15-.71,1.66-1.96,3.1-3.47,5.4-2.48-4.36-4.21-8.1-6.55-11.42-9.5-13.48-19.01-26.95-28.84-40.18-7.9-10.62-16.31-20.86-24.4-31.34-1.42-1.84-3.08-3.98-3.34-6.14-.52-4.28-.15-8.68-.15-13.03,0-1.11,0-2.21,0-3.32.5-.03,1.01-.05,1.51-.08.21,4.51.41,9.02.62,13.54.46.09.91.19,1.37.28.63-1.72,1.77-3.44,1.8-5.17.06-4.09-.44-8.18-.64-12.28-.02-.47.45-.97.69-1.46.27.02.54.04.82.07.48,3.7.95,7.4,1.43,11.1,5.25-4.87.4-10.56,2.79-15.78.7,4.49,1.4,8.98,2.1,13.46.51-.04,1.03-.09,1.54-.13-.35-6.4-.71-12.79-1.06-19.19.41-.03.82-.05,1.23-.08.43,5.22.86,10.44,1.33,16.08,3.07-2.32,4.33-4.7,3.9-8-.4-3.07-.58-6.18-.73-9.27-.11-2.15-.02-4.32-.02-6.48.42-.01.84-.02,1.27-.03.34,5.34.67,10.68,1.01,16.03,4.36-7.3,1.92-15.05,1.9-22.6.48-.02.95-.04,1.43-.07.38,4.91.77,9.82,1.15,14.72.35.01.71.03,1.06.04,2.7-8.3.07-17.1.69-25.6.57.01,1.15.02,1.72.04v16.52l1.51-.03c2.37-8.59.44-17.25-.76-26.55,1.46.9,2.11,1.3,3.11,1.92-.33-2.26-.67-4.16-.87-6.07-.12-1.14-.38-3.15.04-3.32,4.08-1.74,1.58-4.44,1.22-6.84-.13-.88-.11-1.77-.16-2.66.31-.06.62-.12.92-.19.52,1.18,1.05,2.35,1.71,3.85.12-.79.43-1.45.23-1.7-3.62-4.46-.21-11.26-5.09-15.29-.23-.19-.25-.71-.27-1.08-.3-4.49-2.85-7.53-7.31-8.69-4.33-1.13-5.39-.49-6.87,3.8-.32.93-1.17,1.67-1.77,2.5-1.01,1.37-2.02,2.74-3.36,4.56,1.31-.27,1.85-.37,2.6-.53-1.82,3.49-3.46,6.63-5.6,10.72,1.74-.97,2.4-1.34,3.14-1.75-2.12,5.29-4.15,10.36-6.19,15.43.3.13.61.26.91.39.99-1.57,1.98-3.13,2.97-4.7-.26,2.54-1.31,4.68-2.41,6.78-.72,1.37-2.38,2.9-2.12,4.01,1.07,4.63-2.19,7.44-3.94,10.87-.82,1.6-1.91,3.06-2.73,4.66-4.4,8.56-8.51,17.28-13.19,25.69-4.76,8.55-10.04,16.81-15.19,25.14-.38.61-1.61.69-2.44,1.01-.18-.25-.36-.5-.54-.76l-4.67,9.64c-.39-.11-.78-.23-1.17-.34.11-1.52.22-3.04.34-4.56-.23-.08-.47-.16-.7-.25-1.5,2.79-3.01,5.57-4.51,8.36-.28-.12-.56-.23-.84-.35-.06-1.04-.11-2.09-.18-3.35-5.11,1.45-3.01,7.98-7.59,10.28.51-2.68,1.78-5.05,1.1-6.53-1.69-3.69-.24-6.71.59-10.09,1.97-7.94,4.83-15.93,5.06-23.97.3-10.49-1.2-21.1-2.71-31.55-.72-4.96-2.95-9.8-5.09-14.42-.9-1.94-3.53-3-5.05-4.75-2.32-2.66-5.98-3.59-9.3-2.47-2.98,1-2.99,3.45-3.89,5.77-1.79,4.6-4.16,8.98-6.28,13.45.19.09.38.19.57.28,1.39-2.36,2.77-4.73,4.16-7.09.24.15.48.3.73.45-2.4,5.63-4.79,11.25-7.19,16.88.39.17.78.35,1.18.52,1.96-4.03,3.93-8.07,5.89-12.1.27.14.53.29.8.43-2.15,5.63-4.3,11.26-6.45,16.89.34.14.68.27,1.01.41,1.86-3.79,3.72-7.58,5.58-11.36.29.17.59.34.88.51-2.47,6.07-4.94,12.14-7.41,18.21.41.18.82.35,1.23.53,1.61-3.29,3.21-6.58,4.82-9.87-.7,6.86-5.61,12.36-4.72,19.57,2.03-4.94,4.07-9.87,6.1-14.81.34.12.68.24,1.03.36-2.6,7.3-5.19,14.61-7.79,21.91.29.1.59.2.88.3,1.55-3.57,3.1-7.15,4.65-10.72l.93.42c-1.89,5.71-3.79,11.42-5.68,17.12.35.12.7.23,1.05.35,1.04-2.93,2.09-5.87,3.13-8.8.3.08.6.17.9.25-1.71,7.49-3.42,14.97-5.12,22.46.44.1.88.19,1.32.29,1.5-4.69,3-9.39,4.5-14.08.35.11.7.21,1.05.32-1.42,5.15-2.88,10.3-4.25,15.47-1.82,6.86-1.97,11.81-.47,16.28.67-3.88,1.19-7.43,1.91-10.94,1.71-8.26,1.75-8.25,2.98-9.05-1.92,13.02-3.87,26.32-5.83,39.62.38.06.77.12,1.15.17,1.84-9.16,3.69-18.32,5.53-27.48.43.09.85.18,1.28.27-1.28,6.64-2.8,13.24-3.79,19.93-1,6.75-1.47,13.58-2.17,20.37l.97.11,4.31-26.78c.44.07.87.14,1.31.21-.5,3.22-1.01,6.43-1.49,9.65-.51,3.45-.96,6.9-1.49,10.34-.5,3.31-1.27,6.6-1.54,9.92-.27,3.3-.06,6.64-.06,9.96.28.02.57.03.85.05,1.23-9.3,2.45-18.59,3.68-27.89.36.05.72.1,1.09.16-1.46,14.16-2.91,28.31-4.37,42.47.4.05.79.1,1.19.15.94-7.76,1.87-15.52,2.81-23.28.36.06.72.11,1.08.17-.55,11.65-3.29,23.21-2.32,34.94l1.01.08c.64-8.62,1.28-17.23,1.93-25.85.5.03.99.07,1.49.1-.8,11.59-2.16,23.17-1.35,34.76.37.02.74.03,1.11.05.53-6.71,1.07-13.43,1.6-20.14.37.02.75.05,1.12.07.49,9.8-2.25,19.67.12,29.42.5-7.91,1-15.82,1.5-23.73l1.28.06c.19,12.97-2.71,26.04.59,38.9.45,0,.9,0,1.35,0v-32.71c.57.02,1.14.03,1.71.05v40.7c2.09-10.48-.63-21.09,1.5-31.57,2.08,13.4-.23,27.17,4.44,40.31-.43-10.05-.85-20.09-1.28-30.14.46-.02.92-.04,1.38-.06,2.27,15.05-.94,31,6.87,45.18.42-1.93.34-3.81.12-5.67-1.11-9.62-2.3-19.24-3.35-28.87-.16-1.43.22-2.92.34-4.39,1.19.39,1.4.6,1.42.82,1.54,13.72,2.84,27.48,4.74,41.15.48,3.41,2.89,6.55,4.42,9.81.38-.16.77-.32,1.15-.48-.05-.6-.05-1.21-.14-1.8-2.09-12.62-4.21-25.24-6.27-37.87-.21-1.26-.03-2.59-.03-3.89.58-.05,1.15-.1,1.73-.15,1.49,8.86,2.98,17.71,4.47,26.57.48-.05.97-.11,1.45-.16v-9.55c1.08,1.08,1.26,2.18,1.45,3.27,1.6,9.16,3.12,18.33,4.86,27.46.56,2.92,1.6,5.81,5.23,7.38-2.5-13.17-4.91-25.86-7.32-38.55.56-.11,1.13-.21,1.69-.32.79,4.08,1.52,8.17,2.4,12.23,1.85,8.57,3.7,17.14,5.74,25.67.41,1.71,1.67,3.23,2.54,4.83.4-.19.79-.38,1.19-.57-2.3-10.56-6.12-20.86-6.31-31.79,1.57,4.64,2.49,9.41,3.76,14.09,1.59,5.84,3.35,11.64,5.29,17.38.46,1.37,1.95,2.39,2.97,3.58l1.1-.8c-2.15-7.92-4.33-15.83-6.4-23.77-.38-1.43-.33-2.98-.48-4.47.4-.02.8-.04,1.2-.06,3.31,9.55,4.08,19.93,9.5,28.85,1.51-7.85-4.09-14.41-3.91-22.04,3.59,4.7,3.18,11.55,8.59,15.93,1.89-6.11-3.92-10.59-2.27-16.13,4.65,5.65,4.28,13.98,10.24,19.03,2.6-2.15,3.06-4.35,1.96-7.12-1.29-3.22-2.43-6.52-3.51-9.82-.26-.79-.04-1.73-.04-2.6.31-.06.63-.12.94-.18,1.79,3.85,3.58,7.71,5.58,12.01,2.62-3.76,4.09-6.48,1.27-10.07-1.2-1.53-.96-4.19-1.37-6.33.41-.1.82-.2,1.24-.31,1.13,1.72,2.26,3.44,3.98,6.06.68-2.69,1.21-4.25,1.45-5.85,1.27-8.51,1.23-16.7-1.8-25.16-3.19-8.94-6.45-17.71-11.95-25.44-2.96-4.16-6.71-7.76-9.85-11.81-4.15-5.37-8.26-10.8-12.01-16.46-4.4-6.64-9.72-13.08-12.25-20.44-3.41-9.91-4.56-20.61-6.59-30.99-.13-.67.53-1.51.87-2.25.45-.96,1.15-1.85,1.4-2.85.35-1.4.38-2.88.65-5.22,1.2,1.61,1.77,2.37,2.65,3.53.19-2.6.34-4.59.48-6.58.46-.01.93-.03,1.39-.04.36,3.26.72,6.52,1.08,9.78l1.11-.1v-12.52l.69-.04c.61,2.79,1.22,5.57,1.83,8.36.34-.07.68-.14,1.02-.22.21-2.62.42-5.25.63-7.87l.99.03c.43,2.73.87,5.47,1.3,8.2.21-.03.41-.07.62-.1.31-2.53.61-5.05.92-7.58.39,0,.78,0,1.17,0,1.27,5.5-.59,11.63,2.84,16.73l.59-11.51c.34,0,.67,0,1.01.01.41,2.84.82,5.68,1.23,8.52.29-.05.59-.11.88-.16.46-1.82.91-3.64,1.37-5.46.37.1.73.2,1.1.3.91,3.98-.77,8.42,1.91,13.09.6-2.74.98-4.47,1.36-6.2.39.01.78.03,1.17.04.52,5.6,1.05,11.2,1.57,16.79.44-.05.88-.1,1.33-.14.16-2.66.32-5.32.48-7.98.38-.01.77-.03,1.15-.04,2.14,6.93-.99,15.09,3.68,21.44.4-.06.79-.11,1.19-.17v-13.14h1.45c0,3.31-.03,6.62,0,9.92.04,3.4-.84,7.05,2.61,10.31.24-5.04.44-9.36.65-13.68.45,0,.91-.02,1.36-.02.81,8.01-2.22,16.81,4.29,24.14.5-4.91.95-9.3,1.4-13.7.49.02.98.04,1.47.07-1.07,8.23-1.36,16.36,2.63,24.06ZM161.7,174.62c.4.14.79.29,1.19.43-3.21,10.29-6.42,20.57-9.64,30.86.44.14.88.28,1.32.41,2.64-4.66,2.24-10.77,6.61-14.65-.86,4.27-2.11,8.39-3.51,12.45-2.4,7-2.81,9.51-1.68,12.54,1.46-4.26,2.84-8.29,4.23-12.33l1.17.2c0,1.02.25,2.12-.04,3.05-1.17,3.69-2.42,7.35-3.8,10.96-1.35,3.52-1.32,6.88.53,10.29,1.49-5.1,1.39-10.6,4.96-14.92-.63,8.1-4.74,15.75-2.8,25.07,1.44-5.91.75-11.39,4.5-15.55-.89,6.76-1.79,13.52-2.68,20.28.46.06.91.12,1.37.18.79-4.22,1.58-8.43,2.37-12.65.43.07.86.14,1.29.2.63,6.63-3.29,13.27-.83,20.76,1.01-5.22,1.85-9.54,2.69-13.86.46.08.92.16,1.39.24-.39,6.26-3.55,12.67.25,19.36.57-4.61,1.05-8.53,1.53-12.45l1.35.19c-.16,2.79-.55,5.59-.43,8.37.11,2.52.76,5.02,1.18,7.52.35-.06.7-.12,1.05-.17.76-3.2-1.61-6.94,1.36-10.08.56,4.87,1.08,9.33,1.59,13.79.43-.02.85-.04,1.28-.06.27-3.1.55-6.2.83-9.3.45-.01.91-.02,1.36-.03,0,2.78.07,5.57-.02,8.35-.1,3.15,1.36,4.04,3.82,3.48.21-2.75.39-5.16.57-7.56.39.02.78.04,1.17.06l.83,6.53c.4.1.81.2,1.21.3,1.6-3.39,3.65-6.65,4.7-10.21,2.82-9.56-1.3-19.47,1.08-29.11.03-.1-.12-.23-.13-.36-.26-3.07-.64-6.14-.74-9.22-.13-4.08.99-8.55-.34-12.15-1.3-3.52-1.17-6.42-.24-9.59,1.32-4.46,2.82-8.86,4.32-13.26.27-.79.88-1.46,1.33-2.18.38.15.77.31,1.15.46-.2.99-.3,2.02-.6,2.97-1.38,4.3-2.88,8.56-4.21,12.88-.28.91-.04,1.98-.04,2.97.38.04.77.08,1.15.12,1.23-3.28,2.46-6.56,3.69-9.83.5.15,1,.3,1.5.44-1.24,6.73-4.72,13.19-3.08,20.3,1.22-2.31,1.78-4.78,2.6-7.15.8-2.3,1.87-4.51,2.83-6.75.41.17.82.33,1.24.5-1.65,6.57-5.14,12.97-2.69,20.58,1.44-4.81,2.67-8.92,3.9-13.03.44.13.89.25,1.33.38-.87,4.81-1.73,9.61-2.6,14.42.51.12,1.02.24,1.53.37.61-2.08,1.23-4.16,2.16-7.31,2.05,3.93.47,6.8.19,9.6-.3,3.03-.83,6.05-1.26,9.07.23.03.46.07.69.1.87-2.92,1.75-5.83,2.62-8.75.54.09,1.09.18,1.63.27-.67,6.15-1.33,12.29-2,18.44.38.03.75.07,1.13.1.54-2.58,1.08-5.17,1.63-7.75.44.04.89.08,1.33.13-.24,2.34-.54,4.67-.71,7.01-.18,2.52-.24,5.05-.35,7.57.27,0,.55.01.82.02.16-3.01.33-6.03.49-9.04.59,0,1.19.02,1.78.03.55,5.05-1.91,10.5,1.36,16.19.52-4.38.92-7.79,1.33-11.19.44.02.88.05,1.32.07v15.36l.69-.04,2.33-9.75c.36.05.71.09,1.07.14.24,6.12-4.07,12.48.24,18.13.54-3.03,1.12-6.25,1.69-9.46.53.05,1.07.09,1.6.14-.58,4.53-2.22,9.19.96,13.27-1.33-3.23-.93-6.07,1.94-9.49v8.39l.96.09c1.04-4.4,4.91-8.22,2.75-12.13,1.34-2.77,2.59-4.66,3.22-6.74,5.59-18.36,10.84-36.83,16.67-55.11,5.24-16.47,11.07-32.75,16.66-49.11,9.33-27.34,14.53-55.66,19.66-83.97.96-5.31.14-10.94.14-17.35-6.64,4.02-12.75,7.67-18.78,11.44-.79.49-1.13,1.65-1.8,2.4-1.35,1.53-2.51,3.6-4.24,4.37-5.29,2.35-8.58,6.46-12.11,11.86,3.36-1.97,5.86-3.44,8.36-4.91.26.23.51.46.77.69-.85,1.06-1.51,2.38-2.57,3.14-2.62,1.88-5.47,3.44-8.14,5.24-3.37,2.27-5.84,6.29-6,9.67,2.44-1.62,4.8-3.19,7.15-4.75-3.86,5.49-8.88,9.93-12.45,15.33-3.45,5.21-5.42,11.41-8.04,17.17.17.09.33.18.5.27l10.29-8.97c.25.22.51.44.76.65-3.82,7.32-13.82,10.51-14.34,20.51,2.68-2.55,5.1-4.87,7.52-7.18.27.22.53.44.8.66-3.76,5.17-7.53,10.35-11.29,15.52.27.22.53.45.8.67,2.23-2.09,4.45-4.18,6.68-6.26.31.27.62.55.94.82-1.76,2.22-3.56,4.42-5.28,6.67-1.66,2.18-3.23,4.42-4.84,6.63.31.23.62.46.92.69l5.62-4.93c-.33,7.27-8.48,9.6-9.62,16.19.32.3.64.6.97.9,1.68-2.08,3.36-4.17,5.03-6.25.37.29.74.59,1.1.88-2.49,4.02-4.98,8.05-7.47,12.07.21.11.41.23.62.34,1.73-1,3.47-2.01,5.2-3.01.23.19.45.37.68.56-1.97,2.55-3.94,5.11-5.91,7.66.2.17.41.33.61.5l5.26-2.91c.19.26.37.52.56.78-2.71,3.22-5.42,6.45-8.13,9.67.21.18.41.36.62.55,2.38-1.68,4.76-3.35,7.14-5.03.26.28.53.56.79.83-.39.66-.68,1.41-1.19,1.97-2.59,2.82-5.18,5.63-7.88,8.34-.74.74-1.82,1.14-2.74,1.69-.45-1.08-1.25-2.14-1.29-3.24-.15-3.86.17-7.74-.07-11.59-.92-15.23-1.99-30.45-3-45.67-.16-2.37-1.39-3.5-3.48-2.11-3.91,2.6-7.61,5.51-11.4,8.29.47.3.94.59,1.41.89-.11.98.12,2.26-.41,2.88-1.42,1.65-3.2,2.98-4.77,4.51-2.58,2.52-5.11,5.09-7.66,7.64.23.22.46.43.69.65l8.01-6.83c-1.85,7.46-11.42,9.14-12.39,17.56,2.33-1.89,4.39-3.57,6.45-5.25-1.33,5.91-8.25,7.74-9.3,14.41,2.21-1.8,3.92-3.19,5.63-4.58-.71,5.54-7.89,7.1-7.51,14.19,3.48-4.68,6.47-8.55,11.39-10.17-1.22,2.09-2.96,3.64-4.58,5.31-4.26,4.37-7.9,8.96-6.08,15.77.23.86-.83,2.06-1.29,3.11-1.07-.81-2.87-1.47-3.07-2.46-.65-3.14-1.53-6.58-.85-9.58,2.31-10.17,4.12-20.67,8.18-30.16,9.01-21.04,11.73-43.12,13.19-65.51.43-6.66.06-13.48-.89-20.09-1.35-9.46-4.13-18.01-11.91-25.12-5.51-5.04-10.13-5.01-16-3.08-1.92.63-4.51,2.76-5.47,2.14-4.19-2.67-7.4.53-10.03,1.95-3.27,1.77-5.89,5.43-7.86,8.81-7.67,13.16-4.9,26.65-.48,40.06.15.44.75.74,1.61,1.55-.95-9.35-2.88-18.03-.38-26.76.72,1.55.76,3.13.92,4.7.83,8.18,1.58,16.38,2.64,24.53.19,1.48,1.67,2.8,2.55,4.2.31-.15.62-.31.93-.46-1.7-8.05-2.07-16.09-.46-24.11.38-.02.75-.03,1.13-.05v18.32c.34.02.68.04,1.02.07.46-2.64.76-5.32,1.44-7.9.32-1.23,1.15-2.53,2.13-3.34,1.15-.95,2.71-1.4,4.47-2.25-.38,5.24-.8,10.89-1.21,16.55.32.02.64.05.96.07,1.65-2.62,3.3-5.23,4.95-7.85.48.23.96.45,1.44.68-.46,1.22-.78,2.51-1.39,3.65-3.97,7.48-7.35,15.12-6.97,24.29,3.13-5.43,6.04-10.46,8.95-15.5l1.58.68c-.42,1.19-.71,2.45-1.28,3.56-2.66,5.16-5.57,10.21-8.05,15.45-1.21,2.57-1.69,5.49-2.5,8.25,3.24-4.68,5.54-9.56,8.02-14.35.38-.74,1.64-1.01,2.5-1.51-.07.93.18,2.05-.26,2.75-8.81,14.24-12.49,29.88-12.53,46.52.46-4.37,5.4-7.75,2.54-12.89-.24-.43.07-1.29.32-1.86,3.16-7.18,6.3-14.37,9.59-21.5.47-1.03,1.69-1.71,2.56-2.56.22.21.44.41.66.62-3.5,7.31-7.01,14.61-10.51,21.92.27.12.54.25.81.37,1.87-2.81,3.75-5.61,5.62-8.42.4.24.81.48,1.21.72-5.97,13.04-13.27,25.63-14.79,40.2,3.31-8.07,6.01-16.38,11.69-23.29-4.5,12.16-10.5,23.77-11.86,36.87,3.1-6.69,4.15-14.22,7.99-20.56ZM315.28,425.41c-.93-1.74-1.74-3.56-2.82-5.22-1.8-2.76-3.49-5.68-5.74-8.04-3.39-3.56-9.9-1.57-10.74,3.16-.54,3-.79,6.09-.84,9.14-.11,7.76-.04,15.52-.04,23.27,0,8.79.48,9.23,9.13,8.49.21-.02.41-.28.83-.59-1.78-10.69-4.74-21.47-1.54-32.82,1.43,1.08,2.64,2.3,3.17,3.76,1.95,5.34,3.55,10.8,5.56,16.12.48,1.27,2.02,2.14,3.08,3.19.93-1.11,2.25-2.07,2.7-3.35.85-2.37.93-5.01,1.79-7.37,1.56-4.27,2.23-9.09,6.87-12.86,2.53,11.95-.15,22.82-2.16,34.05,2.96,0,5.55.18,8.08-.1.94-.1,2.2-1.13,2.53-2.03.61-1.63.85-3.47.86-5.23.08-9.05.16-18.11-.03-27.15-.06-3.01-.85-6.02-1.53-8.98-.18-.79-1.12-1.92-1.81-1.99-3.21-.35-6.54-.58-8.79,2.5-2.83,3.89-5.58,7.83-8.58,12.05ZM143.68,446.83c-.31-.37-.63-.74-.94-1.11-.7,2.12-1.27,4.28-2.13,6.33-1,2.39-.14,3.22,2.19,3.88,5.79,1.63,14.4-1.06,17.67-6.23,6.31-9.97,6.7-20.78,2.58-31.46-3.42-8.84-13.93-10.18-20.72-3.52-3.63,3.56-4.51,8.07-4.43,12.5.08,4.26,1.63,8.46,6.38,10.46,3.66,1.54,6.98.8,10.26-.79,1.58-.76,3.57-.56,2.86,1.01-1.39,3.11-3.46,6.32-6.12,8.31-1.73,1.29-5.02.48-7.61.62ZM197.13,433.11c0-7.74-.64-10.96-3.5-16.2-2.1-3.85-5.2-6.14-9.81-6.21-4.76-.06-8.19,2.11-10.15,6.22-5.32,11.17-5.7,22.41.19,33.57,4.3,8.14,14.63,7.13,18.86.83,3.8-5.65,4.55-11.76,4.4-18.22ZM288.83,426.33c-4.22.95-7.86,1.9-11.56,2.5-.99.16-3.14-.92-3.11-1.21.33-2.56.4-5.5,1.76-7.5,2.64-3.86,8.4-3.76,13.94-.26,1.37-2.79,2.73-5.54,4.5-9.13h-4.47c-5.81,0-11.65.38-17.41-.12-4.43-.39-5.9,1.88-6.02,5.33-.44,11.95-.69,23.9-.72,35.86,0,1.5,1.41,3.97,2.63,4.32,2.43.69,5.18.2,8,.2-.52-2.48-.93-4.32-1.3-6.16-.37-1.86-.78-3.72-1.06-5.6-.87-5.86,3.98-10.17,9.64-8.64.71.19,1.48.14,2.35.22.51-1.55,1.01-2.96,1.43-4.41.42-1.45.77-2.92,1.41-5.38ZM217.64,451.21c3.52,5.35,11.32,6.8,16.02,5.54,5.6-1.5,8.74-5.66,9.84-10.76,1.59-7.37-.36-13.71-8.58-16.76,1.1-1.47,2.06-2.48,2.7-3.67,1.88-3.51,3.6-7.1,5.46-10.62,1.06-2.01,0-2.61-1.71-2.62-7.08-.05-14.16-.02-21.77-.02.32,1.94.7,3.39.76,4.85.13,3.12,1.22,3.88,4.38,2.86,2.76-.89,5.84-.76,8.78-1.09.22.4.43.8.65,1.21-3.59,4.11-7.18,8.22-11.33,12.97,3.39.63,6.11.58,8.21,1.69,2.01,1.07,4.03,3.07,4.89,5.15,1.25,3.01-.69,5.89-3.39,6.88-1.88.69-4.5-.29-6.67-.93-1.05-.31-1.82-1.56-2.83-2.49-1.94,2.8-3.72,5.36-5.42,7.81ZM206.96,444.88c-3.73-.01-6.44,2.32-6.5,5.61-.05,2.57,3.28,5.81,6,5.84,3.37.04,6.07-2.38,6.18-5.53.11-3.13-2.56-5.91-5.68-5.93ZM390.57,392.89l1.25.28c1.16-8.99,2.31-17.97,3.47-26.96-.4-.05-.8-.11-1.19-.16-1.17,8.95-2.35,17.89-3.52,26.84Z"/>
    <path class="cls-2" d="M131.08,308.78c-3.99-7.7-3.7-15.84-2.63-24.06-.49-.02-.98-.04-1.47-.07-.45,4.4-.9,8.79-1.4,13.7-6.51-7.33-3.48-16.13-4.29-24.14-.45,0-.91.02-1.36.02-.2,4.32-.41,8.64-.65,13.68-3.45-3.26-2.57-6.92-2.61-10.31-.04-3.3,0-6.61,0-9.91h-1.45v13.14c-.4.06-.79.11-1.19.17-4.66-6.35-1.54-14.5-3.68-21.44-.38.01-.77.03-1.15.04-.16,2.66-.32,5.32-.48,7.98-.44.05-.88.1-1.33.14-.52-5.6-1.05-11.2-1.57-16.79-.39-.01-.78-.03-1.17-.04-.38,1.73-.76,3.46-1.36,6.2-2.68-4.67-1-9.11-1.91-13.09-.37-.1-.73-.2-1.1-.3-.46,1.82-.91,3.64-1.37,5.46-.29.05-.59.11-.88.16-.41-2.84-.82-5.68-1.23-8.52-.34,0-.67,0-1.01-.01l-.59,11.51c-3.43-5.1-1.57-11.22-2.84-16.73-.39,0-.78,0-1.17,0-.31,2.53-.61,5.05-.92,7.58-.21.03-.41.07-.62.1-.43-2.73-.87-5.47-1.3-8.2l-.99-.03c-.21,2.62-.42,5.25-.63,7.87-.34.07-.68.14-1.02.22-.61-2.79-1.22-5.57-1.83-8.36l-.69.04v12.52l-1.11.1c-.36-3.26-.72-6.52-1.08-9.78-.46.01-.93.03-1.39.04-.15,1.99-.29,3.98-.48,6.58-.87-1.17-1.44-1.92-2.65-3.53-.27,2.34-.3,3.82-.65,5.22-.25,1-.94,1.89-1.4,2.85-.35.74-1,1.58-.87,2.25,2.03,10.38,3.18,21.07,6.59,30.99,2.53,7.35,7.85,13.8,12.25,20.44,3.75,5.65,7.86,11.08,12.01,16.46,3.13,4.05,6.88,7.65,9.85,11.81,5.5,7.73,8.75,16.5,11.95,25.44,3.02,8.46,3.06,16.65,1.8,25.16-.24,1.6-.77,3.16-1.45,5.85-1.73-2.63-2.86-4.34-3.98-6.06-.41.1-.82.2-1.24.31.41,2.15.17,4.81,1.37,6.33,2.82,3.59,1.35,6.31-1.27,10.07-2-4.3-3.79-8.16-5.58-12.01-.31.06-.63.12-.94.18,0,.87-.22,1.81.04,2.6,1.08,3.3,2.22,6.59,3.51,9.82,1.11,2.77.65,4.97-1.96,7.12-5.96-5.05-5.59-13.39-10.24-19.03-1.64,5.55,4.16,10.03,2.27,16.13-5.41-4.38-5-11.23-8.59-15.93-.17,7.63,5.43,14.19,3.91,22.04-5.42-8.92-6.19-19.31-9.5-28.85-.4.02-.8.04-1.2.06.15,1.49.1,3.04.48,4.47,2.08,7.94,4.26,15.85,6.4,23.77l-1.1.8c-1.02-1.18-2.51-2.21-2.97-3.58-1.94-5.73-3.71-11.53-5.29-17.38-1.27-4.68-2.19-9.45-3.76-14.09.19,10.94,4.01,21.23,6.31,31.79-.4.19-.79.38-1.19.57-.87-1.61-2.13-3.12-2.54-4.83-2.04-8.53-3.89-17.1-5.74-25.67-.88-4.06-1.6-8.15-2.4-12.23-.56.11-1.13.21-1.69.32,2.41,12.69,4.82,25.38,7.32,38.55-3.62-1.57-4.67-4.46-5.23-7.38-1.74-9.13-3.26-18.3-4.86-27.46-.19-1.1-.37-2.2-1.45-3.27v9.55c-.48.05-.97.11-1.45.16-1.49-8.86-2.98-17.71-4.47-26.57-.58.05-1.15.1-1.73.15,0,1.3-.18,2.62.03,3.89,2.06,12.63,4.18,25.24,6.27,37.87.1.59.1,1.2.14,1.8-.38.16-.77.32-1.15.48-1.53-3.26-3.94-6.4-4.42-9.81-1.9-13.67-3.2-27.42-4.74-41.15-.03-.23-.23-.43-1.42-.82-.13,1.46-.5,2.96-.34,4.39,1.06,9.63,2.24,19.24,3.35,28.87.22,1.86.3,3.74-.12,5.67-7.81-14.18-4.6-30.13-6.87-45.18-.46.02-.92.04-1.38.06.43,10.05.85,20.09,1.28,30.14-4.67-13.14-2.36-26.9-4.44-40.31-2.13,10.48.58,21.09-1.5,31.57v-40.7c-.57-.02-1.14-.03-1.71-.05v32.71c-.45,0-.9,0-1.35,0-3.3-12.86-.4-25.93-.59-38.9l-1.28-.06c-.5,7.91-1,15.82-1.5,23.73-2.37-9.75.37-19.62-.12-29.42-.37-.02-.75-.05-1.12-.07-.53,6.71-1.07,13.43-1.6,20.14-.37-.02-.74-.03-1.11-.05-.81-11.59.55-23.17,1.35-34.76-.5-.03-.99-.07-1.49-.1-.64,8.62-1.28,17.23-1.93,25.85l-1.01-.08c-.97-11.72,1.77-23.28,2.32-34.94-.36-.06-.72-.11-1.08-.17-.94,7.76-1.87,15.52-2.81,23.28-.4-.05-.79-.1-1.19-.15,1.46-14.16,2.91-28.31,4.37-42.47-.36-.05-.72-.1-1.09-.16-1.23,9.3-2.45,18.59-3.68,27.89-.28-.02-.57-.03-.85-.05,0-3.32-.21-6.66.06-9.96.27-3.33,1.04-6.61,1.54-9.92.52-3.44.98-6.9,1.49-10.34.48-3.22.99-6.44,1.49-9.65-.44-.07-.87-.14-1.31-.21l-4.31,26.78-.97-.11c.7-6.79,1.17-13.62,2.17-20.37.99-6.68,2.5-13.29,3.79-19.93-.43-.09-.85-.18-1.28-.27-1.84,9.16-3.69,18.32-5.53,27.48-.38-.06-.77-.12-1.15-.17,1.96-13.3,3.92-26.59,5.83-39.62-1.24.81-1.28.8-2.98,9.05-.72,3.51-1.24,7.05-1.91,10.94-1.5-4.47-1.35-9.41.47-16.28,1.37-5.17,2.83-10.31,4.25-15.47-.35-.11-.7-.21-1.05-.32-1.5,4.69-3,9.39-4.5,14.08-.44-.1-.88-.19-1.32-.29,1.71-7.49,3.42-14.97,5.12-22.46-.3-.08-.6-.17-.9-.25-1.04,2.93-2.09,5.87-3.13,8.8-.35-.12-.7-.23-1.05-.35,1.89-5.71,3.79-11.42,5.68-17.12l-.93-.42c-1.55,3.57-3.1,7.15-4.65,10.72-.29-.1-.59-.2-.88-.3,2.6-7.3,5.19-14.61,7.79-21.91-.34-.12-.68-.24-1.03-.36-2.03,4.94-4.07,9.87-6.1,14.81-.89-7.21,4.02-12.71,4.72-19.57-1.61,3.29-3.21,6.58-4.82,9.87-.41-.18-.82-.35-1.23-.53,2.47-6.07,4.94-12.14,7.41-18.21-.29-.17-.59-.34-.88-.51-1.86,3.79-3.72,7.58-5.58,11.36-.34-.14-.68-.27-1.01-.41,2.15-5.63,4.3-11.26,6.45-16.89-.27-.14-.53-.29-.8-.43-1.96,4.03-3.93,8.07-5.89,12.1-.39-.17-.78-.35-1.18-.52,2.4-5.63,4.79-11.25,7.19-16.88-.24-.15-.48-.3-.73-.45-1.39,2.36-2.77,4.73-4.16,7.09-.19-.09-.38-.19-.57-.28,2.13-4.47,4.49-8.85,6.28-13.45.9-2.32.91-4.77,3.89-5.77,3.33-1.11,6.98-.19,9.3,2.47,1.52,1.74,4.15,2.81,5.05,4.75,2.14,4.62,4.38,9.46,5.09,14.42,1.51,10.45,3.01,21.06,2.71,31.55-.23,8.04-3.09,16.03-5.06,23.97-.84,3.38-2.28,6.4-.59,10.09.68,1.48-.58,3.85-1.1,6.53,4.58-2.3,2.48-8.83,7.59-10.28.07,1.26.13,2.3.18,3.35.28.12.56.23.84.35,1.5-2.79,3.01-5.57,4.51-8.36.23.08.47.16.7.25-.11,1.52-.22,3.04-.34,4.56.39.11.78.23,1.17.34l4.67-9.64c.18.25.36.5.54.76.83-.33,2.07-.41,2.44-1.01,5.16-8.32,10.43-16.59,15.19-25.14,4.68-8.4,8.79-17.12,13.19-25.69.82-1.6,1.91-3.06,2.73-4.66,1.75-3.43,5.01-6.24,3.94-10.87-.26-1.11,1.41-2.64,2.12-4.01,1.1-2.1,2.15-4.24,2.41-6.78-.99,1.57-1.98,3.13-2.97,4.7-.3-.13-.61-.26-.91-.39,2.03-5.07,4.07-10.14,6.19-15.43-.74.41-1.4.78-3.14,1.75,2.13-4.09,3.77-7.22,5.6-10.72-.76.15-1.29.26-2.6.53,1.34-1.82,2.35-3.19,3.36-4.56.61-.83,1.45-1.57,1.77-2.5,1.49-4.29,2.55-4.93,6.87-3.8,4.45,1.16,7,4.21,7.31,8.69.02.37.04.89.27,1.08,4.88,4.03,1.48,10.83,5.09,15.29.2.25-.11.92-.23,1.7-.66-1.49-1.19-2.67-1.71-3.85-.31.06-.62.12-.92.19.05.89.03,1.79.16,2.66.36,2.4,2.86,5.09-1.22,6.84-.42.18-.16,2.18-.04,3.32.2,1.91.53,3.81.87,6.07-1-.62-1.66-1.02-3.11-1.92,1.2,9.3,3.13,17.96.76,26.55l-1.51.03v-16.52c-.57-.01-1.15-.02-1.72-.04-.61,8.5,2.01,17.3-.69,25.6-.35-.01-.71-.03-1.06-.04-.38-4.91-.77-9.82-1.15-14.72-.48.02-.95.04-1.43.07.01,7.55,2.45,15.29-1.9,22.6-.34-5.34-.67-10.68-1.01-16.03-.42.01-.84.02-1.27.03,0,2.16-.09,4.32.02,6.48.16,3.1.34,6.2.73,9.27.43,3.3-.84,5.68-3.9,8-.47-5.65-.9-10.87-1.33-16.08-.41.03-.82.05-1.23.08.35,6.4.71,12.79,1.06,19.19-.51.04-1.03.09-1.54.13-.7-4.49-1.4-8.98-2.1-13.46-2.39,5.23,2.47,10.91-2.79,15.78-.48-3.7-.95-7.4-1.43-11.1-.27-.02-.54-.04-.82-.07-.24.49-.72.98-.69,1.46.2,4.1.7,8.19.64,12.28-.02,1.73-1.17,3.45-1.8,5.17-.46-.09-.91-.19-1.37-.28-.21-4.51-.41-9.02-.62-13.54-.5.03-1.01.05-1.51.08,0,1.11,0,2.21,0,3.32,0,4.35-.37,8.74.15,13.03.26,2.16,1.92,4.29,3.34,6.14,8.08,10.48,16.5,20.72,24.4,31.34,9.84,13.23,19.35,26.7,28.84,40.18,2.34,3.32,4.07,7.06,6.55,11.42,1.51-2.3,2.76-3.74,3.47-5.4,1.29-3,2.04-6.24,3.46-9.15.57-1.16,2.65-1.51,3.46-2.64.9-1.26.71-3.39,1.72-4.45,2.58-2.72,5.69-2.87,7.6.17,4.43,7.04,8.39,14.38,12.26,21.75,2.08,3.96,3.97,8.11,5.27,12.39,2.1,6.87,3.63,13.9,5.41,20.87-.31.08-.62.17-.94.25-.44-1.16-.88-2.32-1.31-3.48-.41,0-.82.01-1.23.02-1.58,7.16,4.54,14.68-.35,21.82-1.15-2.73-2.32-5.52-3.5-8.3-.49.11-.98.22-1.47.33.28,7.12,6,14.13.76,22.33-2.02-5.16-3.79-9.67-5.56-14.19l-1.13.31c-.22.67-.77,1.44-.59,1.98,1.48,4.52,2.89,9.08,4.75,13.45,1.35,3.19,1.64,3.06-1.71,6.34-2.31-4.65-4.51-9.06-6.71-13.48-.42.1-.84.2-1.26.3,0,1.25-.33,2.62.06,3.73,1.08,3.02,2.13,6.16,3.84,8.83,1.69,2.62,1.74,4.61-.76,7.12-5.66-5.75-6.25-13.89-9.98-20.53.66,8.13,4.03,15.47,6.87,22.99-7.18-5.57-9.39-13.84-12.63-21.5-.33.05-.66.1-.99.15.08,1.18-.16,2.51.29,3.53,2.62,5.88,5.45,11.67,8.1,17.53.39.87.21,2,.29,3.01-.89-.52-2.02-.85-2.63-1.6-6.33-7.67-8.84-17.11-11.97-26.26-.38-1.11-.78-2.22-1.93-3.08.61,10.64,5.47,19.99,9.79,30.17-5.79-2.88-7.01-7.92-8.68-12.54-2.36-6.53-4.43-13.17-6.67-19.74-.22-.64-.73-1.17-1.64-1.54,1.58,10.58,5.99,20.28,9.6,30.21-.36.32-.71.64-1.07.96-1.17-1.09-2.96-1.97-3.42-3.3-3.41-10-6.56-20.09-9.8-30.15-.37-1.16-.84-2.29-1.26-3.43-.36.08-.72.17-1.07.25v4.96c-.16.06-.32.12-.47.18-1.23-4.11-2.46-8.22-3.69-12.32-.51.12-1.03.23-1.54.35,1.99,9.6,3.97,19.19,5.98,28.88-3.1-2.16-4.3-4.54-5.03-9.24-1.52-9.82-3.05-19.63-4.77-29.42-.19-1.06-1.63-1.89-3.19-3.58-.25-2.34-.62-5.83-.98-9.32-.47,0-.93.02-1.4.03v10.39l-1.64.39c-.77-1.93-2.09-3.82-2.2-5.79-.3-5.61-.11-11.24-.55-16.94-2.94,3.02-1.72,6.95-2.57,10.55-2.44-7.65-.9-15.71-1.52-23.55-.53-.03-1.06-.05-1.58-.08-.32,4.9-.64,9.8-.95,14.71Z"/>
    <path class="cls-2" d="M311.1,223.26c3.87-4.91,7.66-9.89,11.66-14.69,1.69-2.03,3.84-3.68,5.34-5.98-6.75,3.81-11.72,9.58-17.23,16.15,1.89-11.65,11.06-17.03,17.32-24.46l-.74-.89c-1.67,1.45-3.37,2.87-5.02,4.36-1.82,1.64-3.58,3.34-5.96,4.55,4.72-5.31,9.45-10.62,14.17-15.93-6.16,2.99-10.03,8.44-14.68,13.14,2.66-8.78,10.15-13.92,15.96-20.33-.29-.32-.57-.64-.86-.96-3.73,3.44-7.46,6.89-11.19,10.33-.19-.16-.37-.32-.56-.48,4.54-5.51,9.08-11.03,13.62-16.54-.32-.28-.64-.56-.95-.84-3.86,4.3-7.71,8.61-11.57,12.91-.29-.22-.57-.45-.86-.67,2.91-3.41,5.82-6.82,8.73-10.24,3.13-3.67,6.25-7.34,9.37-11-.35-.31-.7-.62-1.04-.93-4.33,4.89-8.67,9.78-13.07,14.75.25-3.59,1.08-4.97,7.61-12.39,3.17-3.6,6.45-7.11,9.68-10.65-.24-.23-.48-.46-.72-.69l-11.61,11.87c-.32-.29-.63-.58-.95-.86,5.25-5.95,10.49-11.9,15.74-17.84-.23-.24-.45-.49-.68-.73-2.16,1.98-4.33,3.95-6.49,5.93-.18-.14-.35-.29-.53-.43,2.75-3.31,5.5-6.62,8.25-9.93-.3-.29-.59-.57-.89-.86-2.56,2.79-5.13,5.58-7.69,8.36-.26-.2-.52-.39-.77-.59,4.46-5.48,8.92-10.97,13.39-16.45-.23-.23-.45-.46-.68-.68-1.72,1.5-3.43,3.01-5.15,4.51-.25-.25-.5-.49-.75-.74,3.08-3.25,6.16-6.5,10.07-10.63-2.06.63-2.99.91-3.92,1.2-.49-.52-.99-1.05-1.48-1.57,3.68-2.83,7.36-5.66,11.04-8.49-.24-.28-.48-.57-.72-.85-.98.5-1.95,1-2.93,1.5-.22-.26-.44-.51-.66-.77,5.74-4.9,11.49-9.8,17.23-14.7-.15-.22-.3-.44-.44-.66-1.61.98-3.22,1.96-5.04,3.07,5.95-9.27,33.62-23.97,44.1-17.63-3.5,1.13-6.78,2.51-10.2,3.24-8.43,1.79-14,7.62-20.13,12.99-4.48,3.92-4,9.46-6.23,14.05-.78,1.61.19,3.97-.09,5.92-1.53,10.42-3.05,20.85-4.86,31.22-2.44,13.92-5.4,27.76-7.65,41.71-1.92,11.97-3.1,24.05-4.7,36.07-1.79,13.42-3.74,26.82-5.45,40.25-.27,2.08.62,4.29.55,6.42-.26,7.74.17,15.64-1.33,23.15-1.47,7.35-.34,14.61-1.17,22.33-1.05-.85-1.81-1.47-3.37-2.73,0,3.33.19,5.85-.05,8.33-.27,2.86.98,6.25-2.7,8.17-.58.3-.43,2.15-.47,3.29-.07,2.02-.02,4.05-.02,6.1-4.34-.19-4.33-.19-4.51,3.8-.23,5.1-.48,10.19-1.16,15.42-2.15-2.58-3.14-1.5-3.89.51-.9,2.42-1.66,4.9-2.64,7.28-.57,1.37-1.48,2.61-3.1,3.57.71-2.18,1.42-4.36,2.12-6.54-.35-.19-.69-.39-1.04-.58-4.14,5.46-8.29,10.92-12.43,16.39-.3-.34-.61-.68-.91-1.02-1.21.84-3.33,1.55-3.46,2.53-.49,3.75-3.4,3.34-5.2,2.68-1.37-.5-2.32-2.89-2.89-4.63-.47-1.44-.1-3.16-.61-4.8-3.88,2.35-2.73,6.03-3.02,9.29-5.49,2.78-7.78-1.26-7.69-5.96.06-2.9,1.78-5.94-.91-9.66-1.59,5.42-4.08,9.79-1.71,14.89-6.35,1.29-9.08-1.04-8.37-7.3.24-2.15.95-4.23,1.24-6.38.13-.96-.25-1.99-.54-3.85-4.36,4.26-4.16,9.01-4.66,13.54-3.41.81-5.12-.45-5.15-3.79-.04-3.59.13-7.18.04-10.76-.02-.95-.65-1.88-1-2.82-.75.81-2.02,1.55-2.16,2.45-.57,3.65-.79,7.36-1.16,11.24-4.1-1.07-4.03-4.63-3.72-7.59.49-4.7,1.76-9.31,2.63-13.98.1-.53-.25-1.15-.64-2.76-5.17,5.74-4.59,12.4-5.99,18.53-2.69-.44-3.81-2.26-3.34-4.63,1.02-5.15,2.35-10.25,3.68-15.34.44-1.67,1.3-3.23,1.96-4.85l-1.05-.87c-.86.75-2.19,1.35-2.52,2.29-1.99,5.67-3.74,11.41-5.85,17.98-.36-1.62-1.05-2.87-.78-3.87,1.79-6.7,3.81-13.33,5.7-20.01.37-1.29.48-2.66.07-4.14-5.11,6.38-5.94,14.41-8.78,21.6h-1.17c-.15-1.86-.86-3.9-.35-5.57,2.16-7.12,4.67-14.14,7.06-21.19.31-.91.6-1.82.3-3.01-6.32,5.01-5.75,13.5-10.49,19.43,3.26-9.25,6.51-18.5,9.77-27.75-.34-.27-.69-.54-1.03-.81-.88,1.06-2.1,1.99-2.58,3.21-2.6,6.58-5.02,13.23-7.6,20.1-2.22-3.21-2.01-6.24-.43-9.38,3.64-7.24,7.24-14.51,10.83-21.77.2-.41.18-.94.27-1.48-3.18.58-3.41.9-7.35,9.37-1.72,3.71-3.51,7.39-5.27,11.08-.3-.09-.61-.18-.91-.27,1.22-3.6,2.27-7.26,3.7-10.78,1.46-3.58,3.19-7.05,4.97-10.48,1.81-3.48,3.83-6.85,6.17-11-3.83,1.2-5.1,3.74-6.38,6.31-1.32,2.65-2.78,5.24-4.13,7.89-1.31,2.58-2.57,5.19-3.84,7.79-.34-.12-.68-.25-1.02-.37,1.1-3.26,1.78-6.76,3.39-9.75,4.04-7.47,8.53-14.7,12.79-22.07.39-.68.38-1.6.56-2.41-.53-.24-1.06-.49-1.59-.73-4.4,7.25-8.8,14.49-13.21,21.74-.25-.1-.5-.21-.75-.31,1.48-3.47,2.74-7.05,4.49-10.37,1.86-3.53,4.17-6.83,6.32-10.21,2.11-3.31,4.25-6.6,6.38-9.9-.33-.33-.65-.66-.98-.99-1.01.95-2.24,1.75-2.99,2.87-3.34,4.99-6.55,10.07-10.24,14.85,3.26-11.4,11.16-20.15,17.38-29.85l-.87-.93c-1.26,1.19-2.77,2.2-3.75,3.59-3.33,4.72-6.47,9.57-10.47,14.15,1.11-4.51,2.15-9.03,3.33-13.51,2.3-8.72,9.28-14.52,13.86-21.83,2.72-4.35,6.35-8.13,9.55-12.18.59-.74,1.09-1.55,1.63-2.33l-1.11-1c-3.13,3.46-6.26,6.92-9.39,10.38-.2-.15-.41-.3-.61-.44,4.69-6.27,9.38-12.54,14.07-18.82-.31-.25-.61-.5-.92-.75-6.66,5.59-10.71,13.48-16.66,19.74,6.32-12.45,15.44-22.83,24.83-33.09-2.65-.46-3.3-.12-5.8,2.96-3.65,4.5-7.29,9.02-11.16,13.8,1.11-3.49,1.4-7.16,3.26-9.69,5.98-8.15,12.53-15.88,18.86-23.76.86-1.07,1.77-2.09,2.66-3.13-.25-.28-.5-.57-.75-.85l-5.2,4.14c-.12-.11-.25-.22-.37-.33,3.69-4.42,7.39-8.83,11.08-13.25-.48-.41-.97-.82-1.45-1.24-4.6,5.44-9.2,10.87-13.8,16.31-.29-.23-.58-.45-.88-.68,4.87-8.75,12.8-15.24,18.97-23.03-.39-.35-.79-.71-1.18-1.06-4.62,4.93-9.25,9.86-13.87,14.8-.26-.22-.53-.44-.79-.66,5.5-6.48,10.99-12.96,16.49-19.44-.2-.25-.41-.49-.61-.74-1.74,1.55-3.56,3.02-5.21,4.65-1.83,1.8-3.51,3.76-5.25,5.64-.31-.24-.62-.49-.94-.73,4.42-5.37,8.84-10.73,13.27-16.1-.34-.32-.67-.63-1.01-.95-1.96,2.58-3.93,5.16-5.89,7.73-.56-.51-1.12-1.02-1.68-1.53,3.64-4.36,7.29-8.71,10.93-13.07-.3-.27-.61-.55-.91-.82-1.77,1.67-3.54,3.35-5.53,5.22-1.27-2.94,1.02-4.48,2.26-6.31,1.36-2,2.88-3.88,4.43-5.95q-5.1-.23-13.32,10.02c.91-1.93,1.79-3.87,2.75-5.78.99-1.96,2.05-3.88,3.08-5.81-.49-.27-.98-.54-1.47-.81-2.4,4.36-5.02,8.62-7.13,13.11-1.24,2.65-2.76,3.8-5.33,2.44-1.11-.59-2.39-2.01-2.5-3.16-.69-7.29,10.75-20.96,17.91-22.07,3.27-.51,6.41-1.87,9.64-2.68,6.68-1.68,8.34-.43,10.18,6.74,2.05,8-.24,15.92-1.88,23.7-2.83,13.4-7.17,26.33-11.91,39.21-4.21,11.46-6.81,23.51-10.07,35.31-4.46,16.17-9.04,32.3-13.22,48.54-2.7,10.48-4.74,21.13-7.11,31.7-1.04,4.64,1.01,8.36,3.67,11.78,2.05,2.64,3.14-.07,4.55-1.1,6.71-4.89,13.47-9.71,20.16-14.63.57-.42.76-1.35,1.12-2.05-.75-.25-1.72-.92-2.21-.66-2.05,1.06-4.03,2.3-5.91,3.65-2.3,1.65-4.49,3.47-6.72,5.22-.29-.32-.57-.64-.86-.96,3.11-2.5,6.25-4.97,9.32-7.52,3.07-2.56,6.07-5.2,9.1-7.81-.42-.51-.85-1.02-1.27-1.53-4.23,3.41-8.46,6.82-12.69,10.23-.35-.14-.69-.29-1.04-.43,1.36-5.09,2.73-10.18,3.67-13.69,6.63-6.14,12.28-11.36,17.93-16.59-.27-.38-.53-.77-.8-1.15-2.72,1.98-5.44,3.95-8.16,5.93-.16-.16-.31-.32-.47-.48,3.41-3.17,6.81-6.34,10.22-9.51-.18-.26-.36-.53-.53-.79-1.17.57-2.53.91-3.46,1.74-2.79,2.46-5.43,5.1-8.09,7.71-.45.44-1.15,1.22-1.01,1.56,1.51,3.97-2.6,4.82-4.18,7.14,1.05-3.64,2.1-7.27,3.16-10.93.9-.27,2.04-.27,2.67-.83,4.86-4.36,9.63-8.82,14.38-13.3.56-.53.82-1.37,1.23-2.07-.32-.24-.64-.48-.96-.71-6.14,5.28-13.1,9.68-17.33,16.99,1.54-6.63,2.57-13.44,4.83-19.82,1.13-3.2,4.35-5.74,6.87-8.34,3-3.07,6.27-5.88,8.96-9.34-5.64,2.99-10.04,7.48-14.92,13.18,2.19-9.86,4.12-18.58,6.05-27.3.83.43,1.65.86,2.48,1.29-.86,1.48-1.93,2.9-2.49,4.49-.22.61.71,1.63,1.11,2.46-.77,1.02-1.52,2.05-2.33,3.04-1.55,1.89-.45,2.37,1.31,2.53-1.09,1.52-2.17,3.04-3.26,4.57l.83.56c4.58-3.89,9.16-7.78,13.75-11.66-.3-.35-.59-.7-.89-1.04-3.5,2.55-7.01,5.1-10.51,7.65,4.54-5.25,9.09-10.51,13.63-15.76-.13-.18-.26-.35-.39-.53-3.9,3.41-7.8,6.83-11.7,10.24,1.34-2.12,2.39-4.51,4.08-6.29,3.1-3.27,6.58-6.19,9.9-9.25-1.49-.2-2.66.22-3.57.97-3.24,2.64-6.38,5.4-9.56,8.11.61-1.23,1-2.67,1.88-3.67,3.24-3.63,6.67-7.1,9.99-10.66.57-.61.95-1.39,1.42-2.1-.36-.29-.71-.58-1.07-.86-4.38,4.6-8.76,9.2-13.14,13.81ZM305.82,260.96c3.97-4.67,7.93-9.34,11.9-14.01-.32-.32-.64-.63-.96-.95-4.27,4.43-8.56,8.84-12.73,13.37-.19.2.76,1.45,1.18,2.22-1.29,1.85-2.58,3.7-3.86,5.55.25.17.5.35.75.52,5.1-4.59,10.19-9.19,15.29-13.78-.26-.33-.53-.66-.79-.99-3.59,2.69-7.18,5.38-10.77,8.08ZM297.35,295.75c.6-1.19.94-2.66,1.86-3.51,2.54-2.35,5.35-4.42,8.01-6.65.94-.78,1.75-1.71,3.29-3.23-5.91,1.02-15.16,9.5-16.03,14.07,1.06-.27,2-.51,2.93-.75-1.93,2.12-3.86,4.25-5.79,6.37.42.41.84.82,1.26,1.23,1.53-1.52,3-3.11,4.61-4.54,1.72-1.53,3.56-2.94,5.37-4.37,1.56-1.23,3.17-2.4,4.76-3.6-1.06-.93-1.52-1.07-1.76-.9-2.85,1.93-5.68,3.91-8.51,5.88ZM247.86,275.16c6.86-10.15,13.36-19.77,20.04-29.67-3.79.36-20.38,24.77-20.04,29.67ZM281.52,325.03c5.63-2.36,18.42-11.79,18.48-13.53-5.48,1.36-18.55,10.7-18.48,13.53ZM281.01,329.9c6.02-3.46,11.92-6.85,18.32-10.53-5.85-1.04-17.71,6.02-18.32,10.53Z"/>
    <path class="cls-2" d="M161.7,174.62c-3.83,6.34-4.89,13.87-7.99,20.56,1.36-13.1,7.35-24.71,11.86-36.87-5.68,6.9-8.38,15.21-11.69,23.29,1.52-14.57,8.82-27.16,14.79-40.2-.4-.24-.81-.48-1.21-.72-1.87,2.81-3.75,5.61-5.62,8.42-.27-.12-.54-.25-.81-.37,3.5-7.31,7.01-14.61,10.51-21.92-.22-.21-.44-.41-.66-.62-.87.84-2.09,1.53-2.56,2.56-3.29,7.12-6.43,14.31-9.59,21.5-.25.57-.56,1.43-.32,1.86,2.86,5.14-2.08,8.52-2.54,12.89.05-16.64,3.72-32.28,12.53-46.52.43-.7.19-1.83.26-2.75-.85.49-2.11.77-2.5,1.51-2.49,4.79-4.78,9.67-8.02,14.35.81-2.76,1.29-5.68,2.5-8.25,2.48-5.25,5.39-10.29,8.05-15.45.57-1.11.86-2.37,1.28-3.56l-1.58-.68c-2.91,5.04-5.82,10.07-8.95,15.5-.38-9.17,2.99-16.8,6.97-24.29.61-1.14.93-2.43,1.39-3.65-.48-.23-.96-.45-1.44-.68-1.65,2.62-3.3,5.23-4.95,7.85-.32-.02-.64-.05-.96-.07.41-5.66.83-11.31,1.21-16.55-1.76.85-3.32,1.3-4.47,2.25-.98.81-1.8,2.11-2.13,3.34-.68,2.58-.98,5.26-1.44,7.9-.34-.02-.68-.04-1.02-.07v-18.32c-.38.02-.75.03-1.13.05-1.61,8.02-1.24,16.06.46,24.11-.31.15-.62.31-.93.46-.88-1.39-2.36-2.71-2.55-4.2-1.06-8.15-1.81-16.35-2.64-24.53-.16-1.57-.21-3.15-.92-4.7-2.5,8.73-.57,17.41.38,26.76-.87-.82-1.47-1.11-1.61-1.55-4.41-13.41-7.19-26.89.48-40.06,1.97-3.38,4.59-7.04,7.86-8.81,2.63-1.43,5.84-4.62,10.03-1.95.97.62,3.55-1.51,5.47-2.14,5.87-1.92,10.49-1.95,16,3.08,7.78,7.11,10.56,15.66,11.91,25.12.95,6.61,1.32,13.43.89,20.09-1.45,22.39-4.17,44.48-13.19,65.51-4.07,9.49-5.87,20-8.18,30.16-.68,2.99.2,6.44.85,9.58.21.99,2,1.65,3.07,2.46.46-1.04,1.53-2.25,1.29-3.11-1.83-6.81,1.82-11.4,6.08-15.77,1.62-1.66,3.35-3.21,4.58-5.31-4.92,1.62-7.9,5.49-11.39,10.17-.37-7.09,6.8-8.66,7.51-14.19-1.71,1.39-3.42,2.79-5.63,4.58,1.05-6.67,7.97-8.51,9.3-14.41-2.06,1.68-4.12,3.35-6.45,5.25.97-8.42,10.54-10.09,12.39-17.56l-8.01,6.83c-.23-.22-.46-.43-.69-.65,2.55-2.55,5.08-5.13,7.66-7.64,1.57-1.53,3.36-2.86,4.77-4.51.53-.62.3-1.9.41-2.88-.47-.3-.94-.59-1.41-.89,3.79-2.78,7.49-5.69,11.4-8.29,2.09-1.39,3.32-.26,3.48,2.11,1.01,15.22,2.08,30.44,3,45.67.23,3.85-.08,7.73.07,11.59.04,1.1.84,2.16,1.29,3.24.92-.56,2.01-.95,2.74-1.69,2.69-2.71,5.29-5.52,7.88-8.34.51-.55.8-1.31,1.19-1.97-.26-.28-.53-.56-.79-.83-2.38,1.68-4.76,3.35-7.14,5.03-.21-.18-.41-.36-.62-.55,2.71-3.22,5.42-6.45,8.13-9.67-.19-.26-.37-.52-.56-.78l-5.26,2.91c-.2-.17-.41-.33-.61-.5,1.97-2.55,3.94-5.11,5.91-7.66-.23-.19-.45-.37-.68-.56-1.73,1-3.47,2.01-5.2,3.01-.21-.11-.41-.23-.62-.34,2.49-4.02,4.98-8.05,7.47-12.07-.37-.29-.74-.59-1.1-.88-1.68,2.08-3.36,4.17-5.03,6.25-.32-.3-.64-.6-.97-.9,1.14-6.59,9.29-8.92,9.62-16.19l-5.62,4.93c-.31-.23-.62-.46-.92-.69,1.61-2.21,3.19-4.45,4.84-6.63,1.72-2.26,3.52-4.45,5.28-6.67-.31-.27-.62-.55-.94-.82-2.23,2.09-4.45,4.18-6.68,6.26-.27-.22-.53-.45-.8-.67,3.76-5.17,7.53-10.35,11.29-15.52-.27-.22-.53-.44-.8-.66-2.42,2.31-4.85,4.63-7.52,7.18.52-10,10.53-13.18,14.34-20.51-.25-.22-.51-.44-.76-.65l-10.29,8.97c-.17-.09-.33-.18-.5-.27,2.62-5.76,4.59-11.96,8.04-17.17,3.58-5.4,8.6-9.84,12.45-15.33-2.35,1.56-4.71,3.13-7.15,4.75.16-3.38,2.63-7.4,6-9.67,2.68-1.8,5.52-3.37,8.14-5.24,1.06-.76,1.73-2.08,2.57-3.14-.26-.23-.51-.46-.77-.69-2.5,1.47-5,2.94-8.36,4.91,3.53-5.4,6.82-9.5,12.11-11.86,1.72-.77,2.88-2.84,4.24-4.37.66-.75,1.01-1.9,1.8-2.4,6.03-3.77,12.14-7.42,18.78-11.44,0,6.41.82,12.04-.14,17.35-5.13,28.31-10.33,56.63-19.66,83.97-5.58,16.36-11.41,32.64-16.66,49.11-5.82,18.29-11.07,36.75-16.67,55.11-.63,2.08-1.88,3.97-3.22,6.74,2.16,3.92-1.71,7.74-2.75,12.13l-.96-.09v-8.39c-2.87,3.42-3.27,6.26-1.94,9.49-3.19-4.08-1.54-8.74-.96-13.27-.53-.05-1.07-.09-1.6-.14-.57,3.21-1.15,6.43-1.69,9.46-4.31-5.65,0-12.02-.24-18.13-.36-.05-.71-.09-1.07-.14l-2.33,9.75-.69.04v-15.36c-.44-.02-.88-.05-1.32-.07-.4,3.41-.81,6.82-1.33,11.19-3.27-5.69-.81-11.15-1.36-16.19-.59,0-1.19-.02-1.78-.03-.16,3.01-.33,6.03-.49,9.04-.27,0-.55-.01-.82-.02.11-2.52.17-5.05.35-7.57.17-2.34.47-4.67.71-7.01-.44-.04-.89-.08-1.33-.13-.54,2.58-1.08,5.17-1.63,7.75-.38-.03-.75-.07-1.13-.1.67-6.15,1.33-12.29,2-18.44-.54-.09-1.09-.18-1.63-.27-.87,2.92-1.75,5.83-2.62,8.75-.23-.03-.46-.07-.69-.1.43-3.02.96-6.03,1.26-9.07.28-2.8,1.85-5.68-.19-9.6-.93,3.15-1.54,5.23-2.16,7.31-.51-.12-1.02-.24-1.53-.37.87-4.81,1.73-9.61,2.6-14.42-.44-.13-.89-.25-1.33-.38-1.23,4.11-2.46,8.22-3.9,13.03-2.46-7.61,1.04-14,2.69-20.58-.41-.17-.82-.33-1.24-.5-.95,2.25-2.03,4.45-2.83,6.75-.82,2.37-1.38,4.83-2.6,7.15-1.64-7.11,1.84-13.57,3.08-20.3-.5-.15-1-.3-1.5-.44-1.23,3.28-2.46,6.56-3.69,9.83-.38-.04-.77-.08-1.15-.12,0-.99-.24-2.06.04-2.97,1.33-4.32,2.82-8.58,4.21-12.88.31-.96.41-1.98.6-2.97-.38-.15-.77-.31-1.15-.46-.45.72-1.07,1.4-1.33,2.18-1.5,4.4-3,8.8-4.32,13.26-.94,3.17-1.06,6.08.24,9.59,1.33,3.6.21,8.06.34,12.15.1,3.08.48,6.15.74,9.22.01.12.16.25.13.36-2.39,9.64,1.73,19.55-1.08,29.11-1.05,3.56-3.1,6.81-4.7,10.21-.4-.1-.81-.2-1.21-.3l-.83-6.53c-.39-.02-.78-.04-1.17-.06-.18,2.41-.37,4.81-.57,7.56-2.46.56-3.92-.33-3.82-3.48.09-2.78.02-5.57.02-8.35-.45.01-.91.02-1.36.03-.27,3.1-.55,6.2-.83,9.3-.43.02-.85.04-1.28.06-.52-4.46-1.03-8.92-1.59-13.79-2.97,3.15-.6,6.89-1.36,10.08-.35.06-.7.12-1.05.17-.41-2.51-1.07-5-1.18-7.52-.12-2.78.26-5.58.43-8.37l-1.35-.19c-.48,3.92-.97,7.84-1.53,12.45-3.8-6.7-.63-13.1-.25-19.36-.46-.08-.92-.16-1.39-.24-.84,4.32-1.67,8.64-2.69,13.86-2.46-7.48,1.46-14.12.83-20.76-.43-.07-.86-.14-1.29-.2-.79,4.22-1.58,8.43-2.37,12.65-.46-.06-.91-.12-1.37-.18.89-6.76,1.79-13.52,2.68-20.28-3.75,4.16-3.06,9.64-4.5,15.55-1.94-9.32,2.18-16.97,2.8-25.07-3.58,4.32-3.48,9.82-4.96,14.92-1.85-3.4-1.88-6.76-.53-10.29,1.38-3.61,2.64-7.28,3.8-10.96.29-.93.04-2.03.04-3.05l-1.17-.2c-1.38,4.04-2.77,8.07-4.23,12.33-1.13-3.03-.72-5.53,1.68-12.54,1.39-4.06,2.64-8.18,3.51-12.45-4.36,3.88-3.96,9.99-6.61,14.65-.44-.14-.88-.28-1.32-.41,3.21-10.29,6.42-20.57,9.64-30.86-.4-.14-.79-.29-1.19-.43ZM238.84,110.56c3.21-2.47,6.42-4.93,9.63-7.4-5.13,1.31-9.31,5.85-9.63,7.4Z"/>
    <path class="cls-2" d="M370.12,238.97c6.18-9.53,12.35-19.06,19.06-29.42-10.47,9.3-15.87,21.44-24.31,31.23,6.5-12.82,13.89-25.08,23.63-36.07-3.14.64-3.2.59-11.62,11.65-3.33,4.37-6.28,9.03-9.91,13.22,4.88-14.14,14.69-25.12,23.55-36.8-4.86,2.61-8.1,6.89-11.34,11.12-3.29,4.29-6.42,8.7-9.93,13.48-.08-6.2,4.06-9.8,6.89-13.87,4.34-6.25,9.25-12.1,13.94-18.1.97-1.25,2.03-2.42,3.25-3.86-3.48.68-5.82,2.74-11.64,10.29-3.11,4.03-6.08,8.16-9.76,11.79,3.11-12.59,13.29-20.3,20.26-30-2.21-.44-3.3.33-7.34,5.22-2.11,2.55-4.36,4.98-6.59,7.52-3.04-3.86,1.11-10.4,6.61-11.22-.69-4.93,3.95-5.13,6.47-6.49,13.45-7.25,27.97-7.78,42.91-6.57,9.49.77,17.02,4.8,23.67,10.96,6.44,5.97,8.21,13.73,7.46,22.23-.28,3.2-.46,6.42-.78,9.61-1.25,12.48-7.77,23.11-12.2,34.47-.12.32-.53.52-1.2,1.15-.08-1.47-.14-2.58-.2-3.68-.26-.09-.52-.18-.79-.27-2.81,6.79-5.62,13.58-8.43,20.36-.16-.06-.33-.12-.49-.19,1.4-4.91,2.8-9.82,4.2-14.73-5.95,8.69-6.4,20.03-14.6,27.6,2.65-6.71,5.31-13.41,7.96-20.12-.38-.16-.77-.33-1.15-.49-.98,2.14-1.93,4.3-2.96,6.42-2.07,4.27-4.32,8.45-6.2,12.79-.96,2.21-1.29,4.69-1.67,6.12,13.11,7.67,25.28,14.79,37.45,21.91-.02.47-.04.93-.06,1.4.79-.96,1.79-1.82,2.32-2.9,1.25-2.54,2.18-5.25,3.43-7.79,2.11-4.28,4.67-8.07,10.51-7.5,2.24,5.72.72,11.61.45,17.47-.29,6.49-3.51,12.59-7.03,16.79-3.94,4.69-4.37,10.33-7.84,15.66v-4c-.22-.06-.45-.13-.67-.19-1.02,2.87-2.03,5.74-3.05,8.62-.44-.15-.88-.29-1.32-.44,1.03-3.54,2.05-7.09,3.08-10.63-.29-.1-.57-.2-.86-.3-1.75,4.93-3.5,9.86-5.25,14.78-.41-.15-.82-.3-1.23-.45-.91-4.54,2.11-8.19,3.57-12.19-.39-.15-.77-.29-1.16-.44-1.91,4.77-3.82,9.54-5.73,14.31-.28-.11-.55-.21-.83-.32.95-3.35,1.9-6.69,3.13-11-4.25,5.04-3.49,11.5-7.33,15.54-.37-.16-.74-.31-1.11-.47,1.2-4.02,2.4-8.05,3.61-12.07l-.92-.35c-1,2.62-1.99,5.25-3.01,7.86-1,2.55-.44,6.07-4.88,7.23,1.3-4.97,2.48-9.44,3.66-13.91-.34-.1-.68-.2-1.02-.3-1.12,3.61-2.31,7.2-3.36,10.82-1.27,4.4-2.01,4.91-7.53,4.26,1.62-4.65,3.2-9.19,4.78-13.72-.3-.13-.6-.25-.9-.38-2.04,4.77-4.09,9.54-6.13,14.31-.37-.15-.73-.3-1.1-.45,2.1-5.55,4.2-11.11,6.3-16.66l-.57-.36c-1.31,2.55-2.74,5.05-3.9,7.67-.93,2.1-1.34,4.44-2.37,6.48-.56,1.1-1.95,1.78-2.97,2.64-.06-1.22-.49-2.57-.12-3.65,1.65-4.82,3.53-9.56,5.33-14.33-.3-.14-.59-.28-.89-.42-2.59,5.84-5.19,11.68-7.78,17.52-.54-.24-1.07-.47-1.61-.71,2.49-6.24,4.98-12.48,7.47-18.72-.33-.13-.66-.27-.98-.4-2.14,4.98-4.2,9.99-6.46,14.91-.7,1.52-.77,4.35-3.77,3.07-2.55-1.09-4.2-2.43-2.73-5.84,2.78-6.45,5.07-13.11,7.57-19.68l-1.03-.44c-3,7.22-5.99,14.44-9.08,21.87-1.07-.85-1.74-1.43-2.45-1.94-3.14-2.23-4.06-4.68-2.05-8.44,2.38-4.45,4.09-9.27,6.09-13.93-.36-.16-.71-.33-1.07-.49-2.61,5.4-5.22,10.79-7.83,16.19-.4.09-.81.19-1.21.28-1.32-3.96-2.64-7.92-4.03-12.1-3.18.93-5.45,2-5.21,6.44.56,10.41.71,20.87.47,31.29-.08,3.4-2.16,6.71-2.81,10.16-1.52,8.06-2.74,16.18-4.06,24.28-.33,2.03-.58,4.06-.92,6.44.81-.33,1.46-.6,2.7-1.11-1.44,2.66-2.67,4.92-3.9,7.19-.27-.08-.54-.16-.81-.25.4-6.18.81-12.36,1.21-18.55-.13-.1-.27-.2-.4-.31-.55,1.21-1.39,2.38-1.59,3.64-.76,4.83-1.11,9.72-2.01,14.52-.54,2.91-1.81,5.68-3.44,8.33-1.12-7.49.25-14.61,2.37-21.66-.45-.12-.9-.24-1.35-.36-1.15,4.04-2.47,8.04-3.39,12.13-.76,3.39-.88,6.92-1.63,10.32-.29,1.3-1.53,2.38-2.82,3.02,1.37-9.26,2.75-18.53,4.28-28.85-5.57,9.5-3.54,19.95-7.38,28.83-5.79-.63-8.47-5.33-6.88-10.83,1.81-6.26,2.96-12.71,4.47-19.06.38-1.58,1.02-3.1,1.55-4.65-.42-.15-.84-.3-1.25-.46-1.35,3.61-2.85,7.18-4.02,10.85-1.19,3.74-2.07,7.58-3.2,11.8-2.11-4.73-2.27-5.11-.04-13.37,1.16-4.31,3.01-8.43,4.55-12.64-.37-.18-.74-.37-1.1-.55-2.15,4.65-4.3,9.3-6.45,13.94-.23,0-.47,0-.7,0,0-1.97-.57-4.16.1-5.87,3.02-7.78,6.39-15.42,9.63-23.11.28-.67.53-1.36.8-2.04-.38-.2-.75-.39-1.13-.59-2.34,4.6-4.68,9.2-7.52,14.77-.29-1.69-.86-2.81-.55-3.6,2.42-6.37,5.02-12.67,7.54-19,.25-.62.32-1.31.48-1.97-.32-.14-.64-.27-.96-.41-2.97,6.13-5.94,12.27-8.91,18.4-.29-.07-.59-.14-.88-.21.26-1.67.13-3.52.83-4.98,4.25-8.88,8.69-17.67,12.72-26.71-6,5.82-7.86,14.23-13.14,20.59,2.4-10.42,9.46-18.83,12.07-29.31-3.99,7.02-7.99,14.03-11.98,21.05-.45-.15-.89-.29-1.34-.44.65-2.41.84-5.07,2.02-7.18,4.34-7.76,9.01-15.34,13.53-23.01.16-.27.1-.67.14-1.01-.31-.19-.62-.37-.93-.56-4.5,6.96-8.99,13.92-13.65,21.13-1.4-5.15-.18-9.27,2.83-13.21,5.1-6.64,9.96-13.47,14.89-20.25.24-.33.16-.91-.59-1.89-5.48,7.24-10.95,14.48-16.43,21.72-.47-.3-.93-.6-1.4-.9,5.52-12.68,13.92-23.75,21.36-35.36l-1.17-.78c-5.97,8.87-11.94,17.74-18.05,26.83-.42-4.27-.34-4.22,6.56-14.79,2.96-4.54,5.52-9.33,8.26-14.01-.3-.22-.61-.43-.91-.65-4.49,6.52-8.98,13.04-14.03,20.38,2.62-12.85,11.01-21.64,16.14-32.15-6.3,5.1-9.1,12.84-14.25,18.88,2.66-10.47,8.84-19.14,14.74-28.01q-2.78.19-7.5,7.59c-2.07,3.25-4.11,6.51-6.16,9.76-.4-.12-.79-.24-1.19-.35.55-2.01.68-4.29,1.73-5.99,3.3-5.31,6.96-10.4,10.46-15.6.61-.9,1.09-1.89,1.63-2.84-.31-.23-.63-.46-.94-.69-3.77,4.8-7.55,9.61-11.32,14.41-.34-.24-.68-.49-1.02-.73,4.4-8.49,10.46-15.86,16.14-23.89-1.51.99-3.02,1.97-4.53,2.96-.3-.2-.61-.41-.91-.61,4.83-7.07,9.65-14.14,14.67-21.49-6.57,4.08-9.61,10.86-14.02,16.42-.12-.11-.25-.22-.37-.33ZM437.37,205.6c-.18-.14-.37-.29-.55-.43,2.16-2.04,4.32-4.08,6.49-6.11-.13-.26-.27-.52-.4-.78-2.06,1.19-4.12,2.38-6.18,3.57-.32-.38-.64-.76-.96-1.13,2.32-1.71,4.65-3.43,6.97-5.14-.21-.28-.43-.55-.64-.83-1.29.47-2.58.94-4.48,1.63,1.47-1.56,2.45-2.6,3.43-3.64-.2-.26-.4-.53-.6-.79l-7.66,4.98c-.22-.38-.45-.77-.67-1.15,2.82-2.4,5.64-4.79,8.46-7.19-.25-.33-.5-.67-.75-1-2.83,1.91-5.66,3.83-8.48,5.74-.45-.48-.9-.97-1.35-1.45,2.25-1.61,4.5-3.22,6.75-4.84-.27-.26-.54-.53-.81-.79-2.97,2.23-5.93,4.47-8.9,6.7-.21-.25-.41-.51-.62-.76,2.48-2.72,4.96-5.45,7.44-8.17-.27-.22-.53-.44-.8-.66-3.2,2.72-6.39,5.44-9.59,8.15-.45-.49-.9-.98-1.35-1.47,2.36-1.61,4.73-3.23,7.09-4.84-.31-.32-.61-.63-.92-.95-2.95,2.17-5.79,4.51-8.87,6.47-6.54,4.14-9.67,10.38-10.7,17.66-1.23,8.66-1.88,17.4-2.88,26.09-.68,5.89-1.61,11.74-2.26,17.63-.12,1.1.3,2.52,1,3.36.38.47,2.21.44,2.77-.06,2.96-2.62,5.96-5.26,8.49-8.28,3.06-3.64,4.91-8.85,8.66-11.2,4.65-2.92,4.99-8.06,8.45-11.38,3.21-3.08,3.23-8.42,7.15-11.26.37-.27.12-1.39.19-2.85.19-.15,1.17-.96,2.15-1.78-.19-.27-.38-.54-.57-.81-1.7.78-3.4,1.56-5.11,2.34-.17-.26-.33-.53-.5-.79,2.23-1.82,4.47-3.64,6.7-5.46-.15-.27-.29-.53-.44-.8-1.72.81-3.44,1.63-5.16,2.44ZM364.39,409.19c4.43-2.65,4.4-7.31,5.13-11.64.75-4.47,1.53-8.94,2.29-13.4-5.78,7.3-3.79,17.01-7.43,25.04ZM417.04,340.29c.53.24,1.06.48,1.58.72,2.48-7.02,4.95-14.04,7.43-21.06-.4-.15-.8-.3-1.2-.46-2.61,6.93-5.21,13.87-7.82,20.8ZM418.98,314.99c-.39-.17-.78-.34-1.17-.51-2.64,5.78-5.28,11.57-7.91,17.35.53.23,1.06.46,1.59.69,2.5-5.85,5-11.69,7.49-17.54ZM405.61,323.57c2.23-5.25,4.45-10.5,6.61-15.59-3.66,2.15-7.02,8.94-6.61,15.59Z"/>
    <path class="cls-2" d="M315.28,425.41c3-4.22,5.75-8.16,8.58-12.05,2.24-3.08,5.58-2.85,8.79-2.5.69.07,1.63,1.2,1.81,1.99.68,2.96,1.46,5.97,1.53,8.98.2,9.05.11,18.1.03,27.15-.02,1.76-.25,3.6-.86,5.23-.33.9-1.6,1.92-2.53,2.03-2.54.28-5.12.1-8.08.1,2.01-11.23,4.68-22.1,2.16-34.05-4.64,3.77-5.31,8.59-6.87,12.86-.86,2.36-.95,5-1.79,7.37-.46,1.28-1.77,2.24-2.7,3.35-1.06-1.05-2.6-1.92-3.08-3.19-2.01-5.31-3.62-10.78-5.56-16.12-.53-1.47-1.74-2.69-3.17-3.76-3.2,11.36-.24,22.14,1.54,32.82-.42.31-.62.57-.83.59-8.65.74-9.13.3-9.13-8.49,0-7.76-.08-15.52.04-23.27.04-3.05.3-6.14.84-9.14.84-4.73,7.35-6.71,10.74-3.16,2.25,2.36,3.94,5.28,5.74,8.04,1.08,1.65,1.89,3.48,2.82,5.22Z"/>
    <path class="cls-2" d="M143.68,446.83c2.59-.13,5.88.67,7.61-.62,2.67-1.99,4.73-5.2,6.12-8.31.7-1.57-1.29-1.78-2.86-1.01-3.28,1.59-6.6,2.32-10.26.79-4.75-1.99-6.3-6.2-6.38-10.46-.09-4.42.8-8.94,4.43-12.5,6.79-6.67,17.3-5.33,20.72,3.52,4.12,10.68,3.73,21.48-2.58,31.46-3.27,5.18-11.89,7.87-17.67,6.23-2.33-.66-3.19-1.48-2.19-3.88.86-2.05,1.43-4.22,2.13-6.33.31.37.63.74.94,1.11ZM157.74,425.1c.05-3.69-3.07-7.47-6.23-7.56-3.12-.08-6.37,3.66-6.4,7.37-.03,4.06,2.41,6.73,6.19,6.78,3.41.04,6.38-3,6.44-6.6Z"/>
    <path class="cls-2" d="M197.12,433.11c.16,6.46-.59,12.57-4.39,18.22-4.23,6.29-14.57,7.31-18.86-.83-5.89-11.16-5.51-22.4-.19-33.57,1.96-4.11,5.39-6.29,10.15-6.22,4.61.06,7.71,2.35,9.81,6.21,2.86,5.25,3.5,8.47,3.49,16.2ZM177.36,432.78c.42,2.94.62,6.27,1.45,9.43.59,2.26,2.1,5.21,4.69,4.51,2.05-.56,4.8-3.16,4.98-5.07.62-6.39.58-12.92,0-19.32-.15-1.72-3.27-4.58-4.73-4.41-1.9.22-4.31,2.66-5.04,4.67-1.1,3.01-.94,6.49-1.36,10.19Z"/>
    <path class="cls-2" d="M288.83,426.33c-.64,2.46-.98,3.93-1.41,5.38-.42,1.44-.93,2.86-1.43,4.41-.87-.07-1.64-.03-2.35-.22-5.66-1.52-10.5,2.79-9.64,8.64.28,1.88.68,3.74,1.06,5.6.37,1.85.78,3.69,1.3,6.16-2.82,0-5.57.48-8-.2-1.23-.35-2.64-2.81-2.63-4.32.04-11.95.29-23.91.72-35.86.13-3.45,1.6-5.72,6.02-5.33,5.76.5,11.6.12,17.41.12h4.47c-1.77,3.59-3.12,6.34-4.5,9.13-5.54-3.5-11.3-3.6-13.94.26-1.36,2-1.44,4.94-1.76,7.5-.04.3,2.11,1.37,3.11,1.21,3.7-.59,7.34-1.55,11.56-2.5Z"/>
    <path class="cls-2" d="M217.64,451.21c1.7-2.45,3.48-5.01,5.42-7.81,1.01.93,1.78,2.18,2.83,2.49,2.17.64,4.79,1.62,6.67.93,2.7-.99,4.64-3.87,3.39-6.88-.86-2.07-2.88-4.08-4.89-5.15-2.1-1.11-4.82-1.06-8.21-1.69,4.15-4.75,7.74-8.86,11.33-12.97-.22-.4-.43-.8-.65-1.21-2.94.32-6.03.2-8.78,1.09-3.16,1.02-4.25.26-4.38-2.86-.06-1.46-.45-2.91-.76-4.85,7.61,0,14.69-.03,21.77.02,1.71.01,2.76.62,1.71,2.62-1.85,3.52-3.57,7.12-5.46,10.62-.64,1.19-1.6,2.2-2.7,3.67,8.22,3.05,10.18,9.39,8.58,16.76-1.1,5.11-4.24,9.27-9.84,10.76-4.71,1.26-12.5-.19-16.02-5.54Z"/>
    <path class="cls-2" d="M206.96,444.88c3.12.01,5.79,2.79,5.68,5.93-.11,3.15-2.81,5.57-6.18,5.53-2.72-.03-6.06-3.27-6-5.84.07-3.29,2.77-5.62,6.5-5.61Z"/>
    <path class="cls-1" d="M311.1,223.26c4.38-4.6,8.76-9.2,13.14-13.81.36.29.71.58,1.07.86-.47.7-.85,1.49-1.42,2.1-3.32,3.57-6.75,7.03-9.99,10.66-.89.99-1.27,2.43-1.88,3.67,0,0,.09-.1.09-.1-.83-.43-1.65-.86-2.48-1.29.49-.7.98-1.4,1.47-2.1Z"/>
    <path class="cls-2" d="M390.57,392.89c1.17-8.95,2.35-17.89,3.52-26.84.4.05.8.11,1.19.16-1.16,8.99-2.31,17.97-3.47,26.96l-1.25-.28Z"/>
    <path class="cls-2" d="M370.49,239.31c-2.24,3.61-4.49,7.21-6.73,10.82-.9-5.67,4.37-7.36,6.37-11.15.12.11.24.22.37.33Z"/>
    <path class="cls-1" d="M247.86,275.16c-.34-4.9,16.25-29.31,20.04-29.67-6.68,9.89-13.19,19.52-20.04,29.67Z"/>
    <path class="cls-1" d="M281.52,325.03c-.06-2.83,13-12.17,18.48-13.53-.06,1.74-12.85,11.17-18.48,13.53Z"/>
    <path class="cls-1" d="M281.01,329.9c.61-4.51,12.47-11.57,18.32-10.53-6.4,3.68-12.31,7.07-18.32,10.53Z"/>
    <path class="cls-1" d="M297.84,276.96c4.23-7.31,11.19-11.72,17.33-16.99.32.24.64.48.96.71-.4.7-.67,1.54-1.23,2.07-4.75,4.48-9.53,8.94-14.38,13.3-.63.56-1.76.56-2.67.83,0,.01-.02.08-.02.08Z"/>
    <path class="cls-1" d="M312.01,226.75c3.18-2.71,6.33-5.47,9.56-8.11.91-.75,2.09-1.17,3.57-.97-3.32,3.06-6.8,5.98-9.9,9.25-1.69,1.78-2.74,4.18-4.08,6.29-.13.14-.28.27-.43.39-.41-.83-1.33-1.85-1.11-2.46.56-1.59,1.62-3,2.49-4.49,0,0-.09.1-.09.1Z"/>
    <path class="cls-1" d="M297.36,295.75c2.83-1.97,5.65-3.95,8.51-5.88.25-.17.71-.02,1.76.9-1.59,1.2-3.19,2.37-4.76,3.6-1.81,1.43-3.65,2.83-5.37,4.37-1.61,1.43-3.08,3.02-4.61,4.54-.42-.41-.84-.82-1.26-1.23,1.93-2.12,3.86-4.25,5.79-6.37l-.07.07Z"/>
    <path class="cls-1" d="M297.43,295.68c-.94.24-1.87.48-2.93.75.87-4.57,10.13-13.05,16.03-14.07-1.54,1.52-2.36,2.45-3.29,3.23-2.66,2.23-5.47,4.3-8.01,6.65-.92.85-1.26,2.32-1.86,3.51,0,0,.07-.08.07-.08Z"/>
    <path class="cls-1" d="M305.82,260.96c3.59-2.69,7.18-5.38,10.77-8.08.26.33.53.66.79.99-5.1,4.59-10.19,9.19-15.29,13.78-.25-.17-.5-.35-.75-.52,1.29-1.85,2.58-3.7,3.86-5.55.21-.21.41-.42.62-.62Z"/>
    <path class="cls-1" d="M305.82,260.96c-.21.21-.41.42-.62.62-.42-.76-1.37-2.01-1.18-2.22,4.17-4.53,8.46-8.94,12.73-13.37.32.32.64.63.96.95-3.97,4.67-7.93,9.34-11.9,14.01Z"/>
    <path class="cls-1" d="M309.63,239.26c3.5-2.55,7.01-5.1,10.51-7.66.3.35.59.7.89,1.04-4.58,3.89-9.16,7.78-13.75,11.66l-.83-.56c1.09-1.52,2.17-3.04,3.26-4.57,0,0-.09.08-.09.08Z"/>
    <path class="cls-1" d="M310.73,233.6c.16-.12.3-.25.43-.39,3.9-3.41,7.8-6.83,11.7-10.24.13.18.26.35.39.53-4.54,5.25-9.08,10.51-13.63,15.76,0,0,.09-.08.08-.08-1.76-.16-2.86-.64-1.31-2.53.81-.99,1.55-2.03,2.33-3.04Z"/>
    <path class="cls-1" d="M238.84,110.56c.32-1.55,4.49-6.09,9.63-7.4-3.21,2.47-6.42,4.93-9.63,7.4Z"/>
    <path class="cls-1" d="M437.37,205.6c1.72-.81,3.44-1.63,5.16-2.44.15.27.29.53.44.8-2.23,1.82-4.47,3.64-6.7,5.46.17.26.33.53.5.79,1.7-.78,3.4-1.56,5.11-2.34.19.27.38.54.57.81-.98.81-1.97,1.62-2.15,1.78-.07,1.46.18,2.59-.19,2.85-3.92,2.84-3.94,8.19-7.15,11.26-3.46,3.32-3.8,8.46-8.45,11.38-3.74,2.35-5.6,7.56-8.66,11.2-2.53,3.01-5.53,5.66-8.49,8.28-.56.5-2.39.52-2.77.06-.69-.84-1.12-2.26-1-3.36.65-5.89,1.58-11.75,2.26-17.63,1-8.69,1.65-17.43,2.88-26.09,1.03-7.28,4.16-13.52,10.7-17.66,3.08-1.95,5.92-4.3,8.87-6.47.31.32.61.63.92.95-2.36,1.61-4.73,3.23-7.09,4.84.45.49.9.98,1.35,1.47,3.2-2.72,6.39-5.44,9.59-8.15.27.22.53.44.8.66-2.48,2.72-4.96,5.45-7.44,8.17.21.25.41.51.62.76,2.97-2.23,5.93-4.47,8.9-6.7.27.26.54.53.81.79-2.25,1.61-4.5,3.22-6.75,4.84.45.48.9.97,1.35,1.45,2.83-1.91,5.66-3.83,8.48-5.74.25.33.5.67.75,1-2.82,2.4-5.64,4.79-8.46,7.19.22.38.45.77.67,1.15l7.66-4.98c.2.26.4.53.6.79-.98,1.04-1.96,2.08-3.43,3.64,1.9-.69,3.19-1.16,4.48-1.63.21.28.43.55.64.83-2.32,1.71-4.65,3.43-6.97,5.14.32.38.64.76.96,1.13,2.06-1.19,4.12-2.38,6.18-3.57.13.26.27.52.4.78-2.16,2.04-4.32,4.08-6.49,6.11.18.14.37.29.55.43Z"/>
    <path class="cls-1" d="M364.39,409.19c3.63-8.03,1.64-17.74,7.43-25.04-.77,4.47-1.54,8.93-2.29,13.4-.73,4.32-.71,8.99-5.13,11.64Z"/>
    <path class="cls-1" d="M417.04,340.29c2.61-6.93,5.21-13.87,7.82-20.8.4.15.8.3,1.2.46-2.48,7.02-4.95,14.04-7.43,21.06-.53-.24-1.06-.48-1.58-.72Z"/>
    <path class="cls-1" d="M418.98,314.99c-2.5,5.85-5,11.69-7.49,17.54-.53-.23-1.06-.46-1.59-.69,2.64-5.78,5.28-11.57,7.91-17.35.39.17.78.34,1.17.51Z"/>
    <path class="cls-1" d="M405.61,323.57c-.41-6.65,2.95-13.45,6.61-15.59-2.16,5.09-4.38,10.34-6.61,15.59Z"/>
    <path class="cls-1" d="M157.74,425.1c-.05,3.59-3.03,6.64-6.44,6.6-3.78-.05-6.22-2.71-6.19-6.78.02-3.71,3.28-7.46,6.4-7.37,3.16.09,6.28,3.87,6.23,7.56Z"/>
    <path class="cls-1" d="M177.36,432.78c.42-3.7.26-7.18,1.36-10.19.74-2.01,3.15-4.45,5.04-4.67,1.46-.17,4.58,2.7,4.73,4.41.57,6.4.61,12.93,0,19.32-.19,1.91-2.94,4.51-4.98,5.07-2.58.7-4.09-2.24-4.69-4.51-.83-3.17-1.03-6.5-1.45-9.43Z"/>
  </g>
</svg>